# Blender v3.0.1 OBJ File: 'Cafe_Assets_002.blend'
# www.blender.org
mtllib 5x6Frame_01.mtl
o 5x6_frame_01_glass_Cube.010
v -0.058049 -0.070778 0.008269
v -0.058049 0.070778 0.008269
v -0.058049 0.070778 0.007507
v -0.058049 -0.070778 0.007507
v 0.058049 0.070778 0.007507
v 0.058049 -0.070778 0.007507
v 0.058049 0.070778 0.008269
v 0.058049 -0.070778 0.008269
v 0.058049 -0.070778 0.005446
v 0.058049 0.070778 0.005446
v -0.058049 0.070778 0.005446
v -0.058049 -0.070778 0.005446
v -0.063472 -0.076200 0.010330
v -0.063472 0.076200 0.010330
v -0.063472 0.076200 -0.010330
v -0.063472 -0.076200 -0.010330
v 0.057468 -0.070197 -0.010330
v -0.057468 -0.070197 -0.010330
v -0.057468 -0.070197 -0.008055
v 0.057468 -0.070197 -0.008055
v 0.063472 -0.076200 -0.010330
v 0.063472 0.076200 -0.010330
v 0.063472 0.076200 0.010330
v 0.063472 -0.076200 0.010330
v -0.058049 -0.070778 0.010330
v 0.058049 -0.070778 0.010330
v -0.058049 0.070778 0.010330
v 0.058049 0.070778 0.010330
v -0.057468 0.070197 -0.010330
v 0.057468 0.070197 -0.010330
v 0.057468 0.070197 -0.008055
v -0.057468 0.070197 -0.008055
vt 0.610755 0.545066
vt 0.864147 0.544671
vt 0.864159 0.550775
vt 0.610787 0.551169
vt 0.609842 0.977584
vt 0.260113 0.976809
vt 0.261059 0.550395
vt 0.007665 0.550788
vt 0.007655 0.544685
vt 0.261026 0.544291
vt 0.261971 0.117877
vt 0.611700 0.118651
vt 0.609874 0.983688
vt 0.260146 0.982913
vt 0.623881 0.525641
vt 0.623881 0.084900
vt 0.985359 0.084900
vt 0.985359 0.525641
vt 0.241498 0.105085
vt 0.241498 0.301857
vt 0.217279 0.301857
vt 0.215939 0.105085
vt 0.057746 0.112159
vt 0.209277 0.112159
vt 0.206161 0.115949
vt 0.061417 0.115949
vt 0.051084 0.105085
vt 0.051084 0.301857
vt 0.025526 0.301857
vt 0.025526 0.105085
vt 0.210809 0.512988
vt 0.057950 0.512988
vt 0.063371 0.505177
vt 0.205388 0.505177
vt 0.049744 0.078255
vt 0.214599 0.078255
vt 0.217279 0.320453
vt 0.051480 0.320453
vt 0.210809 0.326866
vt 0.217279 0.519401
vt 0.057950 0.326866
vt 0.051480 0.519401
vt 0.205388 0.334677
vt 0.063371 0.334677
vt 0.209277 0.294783
vt 0.058158 0.294783
vt 0.060862 0.290994
vt 0.206161 0.290994
vn -1.0000 0.0000 0.0000
vn 0.0000 0.0000 -1.0000
vn 1.0000 -0.0000 0.0000
vn 0.0000 -0.0000 1.0000
vn 0.0000 -1.0000 0.0000
vn 0.0000 1.0000 0.0000
usemtl Glass.001
s 1
f 1/1/1 2/2/1 3/3/1 4/4/1
f 4/4/2 3/5/2 5/6/2 6/7/2
f 6/7/3 5/8/3 7/9/3 8/10/3
f 8/10/4 7/11/4 2/12/4 1/1/4
f 4/4/5 6/7/5 8/10/5 1/1/5
f 5/6/6 3/5/6 2/13/6 7/14/6
usemtl Picture.001
f 9/15/4 10/16/4 11/17/4 12/18/4
usemtl Frame.001
f 13/19/1 14/20/1 15/21/1 16/22/1
f 17/23/6 18/24/6 19/25/6 20/26/6
f 21/27/3 22/28/3 23/29/3 24/30/3
f 25/31/6 26/32/6 9/33/6 12/34/6
f 16/22/5 21/27/5 24/35/5 13/36/5
f 22/28/6 15/21/6 14/37/6 23/38/6
f 25/31/4 27/39/4 14/37/4 13/40/4
f 28/41/4 26/32/4 24/42/4 23/38/4
f 26/32/4 25/31/4 13/40/4 24/42/4
f 27/39/4 28/41/4 23/38/4 14/37/4
f 27/39/3 25/31/3 12/34/3 11/43/3
f 28/41/5 27/39/5 11/43/5 10/44/5
f 26/32/1 28/41/1 10/44/1 9/33/1
f 29/45/2 18/24/2 16/22/2 15/21/2
f 18/24/2 17/23/2 21/27/2 16/22/2
f 30/46/2 29/45/2 15/21/2 22/28/2
f 17/23/2 30/46/2 22/28/2 21/27/2
f 30/46/1 17/23/1 20/26/1 31/47/1
f 18/24/3 29/45/3 32/48/3 19/25/3
f 19/25/2 32/48/2 31/47/2 20/26/2
f 29/45/5 30/46/5 31/47/5 32/48/5
