# Blender v3.0.1 OBJ File: 'Cafe_Assets_002.blend'
# www.blender.org
mtllib cafetable_01.mtl
o cafetable_01_Mesh.001
v 0.015281 -0.325629 -0.033132
v 0.015281 0.324908 -0.033132
v 0.034153 0.324908 -0.014261
v 0.034153 -0.325629 -0.014261
v 0.034153 0.324908 0.012429
v 0.034153 -0.325629 0.012429
v 0.015281 0.324908 0.031301
v 0.015281 -0.325629 0.031301
v -0.011408 0.324908 0.031301
v -0.011408 -0.325629 0.031301
v -0.030280 0.324908 0.012429
v -0.030280 -0.325629 0.012429
v -0.030280 0.324908 -0.014261
v -0.030280 -0.325629 -0.014261
v -0.011408 0.324908 -0.033133
v -0.011408 -0.325629 -0.033133
v 0.202218 -0.328367 0.188637
v 0.191934 -0.328367 0.198921
v 0.195507 -0.328367 0.202495
v 0.205792 -0.328367 0.192211
v 0.179111 -0.357419 0.165530
v 0.179111 -0.328367 0.165530
v 0.202218 -0.357419 0.188637
v -0.030280 -0.360155 -0.014261
v -0.030280 -0.360155 0.012429
v -0.011408 -0.360155 0.031301
v 0.015281 -0.360155 0.031301
v -0.186585 -0.328366 -0.199270
v -0.186585 -0.357418 -0.199270
v -0.188348 -0.357418 -0.201034
v -0.188348 -0.328366 -0.201034
v 0.034153 -0.360155 0.012429
v 0.034153 -0.360155 -0.014261
v -0.185659 -0.328367 0.197408
v -0.195943 -0.328367 0.187124
v -0.198185 -0.328367 0.189366
v -0.187901 -0.328367 0.199650
v 0.015281 -0.360155 -0.033132
v -0.011408 -0.360155 -0.033133
v 0.199907 -0.328366 -0.189046
v 0.199907 -0.357418 -0.189046
v 0.202058 -0.357418 -0.191197
v 0.202058 -0.328366 -0.191197
v 0.029638 -0.328367 -0.018776
v 0.019353 -0.328367 -0.029060
v 0.019797 -0.328367 0.026785
v 0.030081 -0.328367 0.016501
v -0.025764 -0.328367 0.016944
v -0.015480 -0.328367 0.027229
v -0.015928 -0.328367 -0.028612
v -0.026209 -0.328367 -0.018332
v 0.019353 -0.357419 -0.029060
v 0.029638 -0.357419 -0.018776
v 0.030081 -0.357419 0.016501
v 0.019797 -0.357419 0.026785
v -0.015480 -0.357419 0.027229
v -0.025764 -0.357419 0.016944
v -0.026209 -0.357419 -0.018332
v -0.015928 -0.357419 -0.028612
v 0.191774 -0.328366 -0.201481
v 0.191774 -0.357418 -0.201481
v 0.189623 -0.357418 -0.199330
v 0.189623 -0.328366 -0.199330
v 0.176302 -0.328366 -0.165441
v 0.166018 -0.328366 -0.175725
v 0.166018 -0.357418 -0.175725
v 0.176302 -0.357418 -0.165441
v 0.198875 -0.357418 -0.189046
v 0.176302 -0.357418 -0.166473
v 0.176302 -0.374788 -0.166473
v 0.198875 -0.374788 -0.189046
v 0.167050 -0.357418 -0.175725
v 0.189623 -0.357418 -0.198298
v 0.167050 -0.374788 -0.175725
v 0.189623 -0.374788 -0.198298
v -0.198629 -0.328366 -0.190754
v -0.198629 -0.357418 -0.190753
v -0.196865 -0.357418 -0.188990
v -0.196865 -0.328366 -0.188990
v -0.176236 -0.328366 -0.168361
v -0.176236 -0.357418 -0.168361
v -0.165956 -0.328366 -0.178641
v -0.165956 -0.357418 -0.178641
v -0.176236 -0.357418 -0.170630
v -0.194596 -0.357418 -0.188990
v -0.194596 -0.374788 -0.188990
v -0.176236 -0.374788 -0.170630
v -0.168225 -0.357418 -0.178641
v -0.186585 -0.357418 -0.197001
v -0.168225 -0.374788 -0.178641
v -0.186585 -0.374788 -0.197001
v -0.198185 -0.357419 0.189366
v -0.187901 -0.357419 0.199650
v -0.195943 -0.357419 0.187124
v -0.185659 -0.357419 0.197408
v -0.165486 -0.357419 0.177235
v -0.175770 -0.357419 0.166951
v -0.165486 -0.328367 0.177235
v -0.175770 -0.328367 0.166951
v -0.193967 -0.357419 0.187124
v -0.175770 -0.357419 0.168927
v -0.175770 -0.374789 0.168927
v -0.193967 -0.374789 0.187124
v -0.185659 -0.357419 0.195432
v -0.167463 -0.357419 0.177235
v -0.167463 -0.374789 0.177235
v -0.185659 -0.374789 0.195432
v 0.195507 -0.357419 0.202495
v 0.205792 -0.357419 0.192211
v 0.191934 -0.357419 0.198921
v 0.001937 0.324908 -0.000916
v 0.001937 -0.360155 -0.000916
v 0.199214 -0.357419 0.188637
v 0.191934 -0.357419 0.195918
v 0.191934 -0.374789 0.195918
v 0.199214 -0.374789 0.188637
v 0.168827 -0.328367 0.175814
v 0.168827 -0.357419 0.175814
v 0.171830 -0.357419 0.175814
v 0.179110 -0.357419 0.168534
v 0.171830 -0.374789 0.175814
v 0.179110 -0.374789 0.168534
v -0.272000 0.324789 -0.272000
v 0.272000 0.324789 -0.272000
v 0.272000 0.324788 0.272000
v -0.272000 0.324788 0.272000
v 0.272000 0.374788 0.272000
v 0.272000 0.374789 -0.272000
v -0.272000 0.374789 -0.272000
v -0.272000 0.374788 0.272000
v 0.272000 0.327788 0.275000
v 0.272000 0.371788 0.275000
v -0.272000 0.371788 0.275000
v -0.272000 0.327788 0.275000
v 0.275000 0.327789 -0.272000
v 0.275000 0.371789 -0.272000
v 0.275000 0.371788 0.272000
v 0.275000 0.327788 0.272000
v -0.272000 0.327789 -0.275000
v -0.272000 0.371789 -0.275000
v 0.272000 0.371789 -0.275000
v 0.272000 0.327789 -0.275000
v -0.275000 0.327788 0.272000
v -0.275000 0.371788 0.272000
v -0.275000 0.371789 -0.272000
v -0.275000 0.327789 -0.272000
v 0.273875 0.325914 -0.273875
v -0.273875 0.325914 -0.273875
v 0.273875 0.325913 0.273875
v 0.273875 0.373663 0.273875
v -0.273875 0.325913 0.273875
v -0.273875 0.373663 0.273875
v 0.273875 0.373664 -0.273875
v -0.273875 0.373664 -0.273875
vt 0.692155 0.595866
vt 0.692156 0.054965
vt 0.714347 0.054965
vt 0.714347 0.595866
vt 0.736539 0.054965
vt 0.736538 0.595866
vt 0.559006 0.595866
vt 0.559009 0.054965
vt 0.581201 0.054965
vt 0.581198 0.595866
vt 0.603392 0.054965
vt 0.603389 0.595866
vt 0.625583 0.054965
vt 0.625581 0.595866
vt 0.647774 0.054965
vt 0.647772 0.595866
vt 0.669965 0.054965
vt 0.669964 0.595866
vt 0.575302 0.705089
vt 0.575301 0.717181
vt 0.571099 0.717182
vt 0.571099 0.705089
vt 0.602473 0.680933
vt 0.602473 0.705089
vt 0.575302 0.680933
vt 0.647772 0.624575
vt 0.625581 0.624575
vt 0.603389 0.624575
vt 0.581198 0.624575
vt 0.791258 0.233175
vt 0.767102 0.233175
vt 0.767102 0.231102
vt 0.791258 0.231102
vt 0.736538 0.624575
vt 0.714347 0.624575
vt 0.803355 0.016120
vt 0.791262 0.016120
vt 0.791262 0.013484
vt 0.803355 0.013484
vt 0.692155 0.624575
vt 0.669964 0.624575
vt 0.759224 0.792463
vt 0.759224 0.768306
vt 0.761753 0.768306
vt 0.761753 0.792463
vt 0.709037 0.598142
vt 0.696944 0.598142
vt 0.575888 0.598142
vt 0.563795 0.598142
vt 0.620271 0.598142
vt 0.608178 0.598142
vt 0.664648 0.598142
vt 0.652559 0.598142
vt 0.696944 0.622299
vt 0.709037 0.622299
vt 0.563795 0.622298
vt 0.575888 0.622298
vt 0.559006 0.624574
vt 0.608178 0.622299
vt 0.620271 0.622299
vt 0.652559 0.622299
vt 0.664648 0.622299
vt 0.761753 0.804555
vt 0.773846 0.804555
vt 0.773846 0.828711
vt 0.761753 0.828711
vt 0.759224 0.756213
vt 0.761753 0.756213
vt 0.759224 0.828711
vt 0.759224 0.804555
vt 0.559006 0.804555
vt 0.559006 0.792462
vt 0.731467 0.792462
vt 0.731467 0.804555
vt 0.559006 0.828712
vt 0.731467 0.828711
vt 0.559006 0.768306
vt 0.559006 0.756213
vt 0.731467 0.756213
vt 0.731467 0.768306
vt 0.755013 0.455399
vt 0.773781 0.436631
vt 0.783994 0.446843
vt 0.765225 0.465612
vt 0.732074 0.756820
vt 0.732074 0.767699
vt 0.758617 0.767699
vt 0.758617 0.756820
vt 0.791686 0.454536
vt 0.772918 0.473304
vt 0.801898 0.464748
vt 0.783130 0.483517
vt 0.794206 0.436631
vt 0.801898 0.444323
vt 0.762705 0.483517
vt 0.755013 0.475824
vt 0.803346 0.231101
vt 0.803346 0.219013
vt 0.827502 0.219013
vt 0.827502 0.231102
vt 0.755014 0.233175
vt 0.755013 0.231102
vt 0.803346 0.233175
vt 0.827502 0.233175
vt 0.827502 0.433849
vt 0.803346 0.433849
vt 0.803346 0.257432
vt 0.827502 0.257432
vt 0.791257 0.433848
vt 0.791258 0.257432
vt 0.767101 0.433848
vt 0.755013 0.433848
vt 0.755013 0.257432
vt 0.767101 0.257432
vt 0.755013 0.592785
vt 0.770278 0.577519
vt 0.780491 0.587731
vt 0.765225 0.602997
vt 0.756347 0.256098
vt 0.765767 0.256098
vt 0.765768 0.234509
vt 0.756348 0.234509
vt 0.771886 0.609658
vt 0.787151 0.594392
vt 0.761674 0.619870
vt 0.755013 0.613209
vt 0.790703 0.577519
vt 0.797364 0.584180
vt 0.797364 0.604604
vt 0.782098 0.619870
vt 0.803355 0.001391
vt 0.827511 0.001391
vt 0.827511 0.013484
vt 0.767106 0.016120
vt 0.767106 0.013484
vt 0.827511 0.016120
vt 0.755013 0.016120
vt 0.755013 0.013484
vt 0.767106 0.216231
vt 0.755013 0.216231
vt 0.755013 0.039841
vt 0.767106 0.039841
vt 0.827511 0.216231
vt 0.803355 0.216231
vt 0.803355 0.039841
vt 0.827511 0.039841
vt 0.791262 0.216231
vt 0.791262 0.039841
vt 0.770143 0.574737
vt 0.755013 0.559607
vt 0.765225 0.549394
vt 0.780355 0.564524
vt 0.756175 0.017282
vt 0.756175 0.038679
vt 0.765944 0.038679
vt 0.765944 0.017282
vt 0.772133 0.542487
vt 0.787263 0.557617
vt 0.782345 0.532274
vt 0.797475 0.547404
vt 0.797475 0.567829
vt 0.790567 0.574737
vt 0.755013 0.539182
vt 0.761920 0.532274
vt 0.559006 0.705088
vt 0.559007 0.680932
vt 0.571100 0.680933
vt 0.575302 0.741338
vt 0.571099 0.741338
vt 0.575302 0.753431
vt 0.571099 0.753431
vt 0.725443 0.028178
vt 0.698656 0.039274
vt 0.752230 0.039274
vt 0.752230 0.017083
vt 0.736539 0.001391
vt 0.714348 0.001391
vt 0.698656 0.017083
vt 0.725443 0.651362
vt 0.698655 0.640267
vt 0.752230 0.640267
vt 0.752230 0.662458
vt 0.736539 0.678150
vt 0.714347 0.678150
vt 0.698655 0.662458
vt 0.792153 0.486299
vt 0.798206 0.492352
vt 0.787994 0.502564
vt 0.781941 0.496511
vt 0.777714 0.705089
vt 0.777714 0.717182
vt 0.602473 0.717182
vt 0.777714 0.741338
vt 0.602473 0.741338
vt 0.777714 0.680933
vt 0.777714 0.753431
vt 0.602473 0.753430
vt 0.577068 0.743104
vt 0.577068 0.751665
vt 0.600707 0.743104
vt 0.600707 0.751664
vt 0.771278 0.519280
vt 0.765225 0.513227
vt 0.755013 0.503014
vt 0.771728 0.486299
vt 0.798206 0.512777
vt 0.781491 0.529492
vt 0.761066 0.529492
vt 0.755013 0.523439
vt 0.490483 0.490857
vt 0.067710 0.490663
vt 0.066325 0.067071
vt 0.491214 0.066801
vt 0.063291 0.988267
vt 0.068242 0.563537
vt 0.493001 0.563779
vt 0.490497 0.990987
vt 0.061674 0.055162
vt 0.059493 0.006364
vt 0.495034 0.005910
vt 0.495624 0.054780
vt 0.055687 0.495273
vt 0.006911 0.497544
vt 0.005879 0.063122
vt 0.054459 0.062491
vt 0.495258 0.502760
vt 0.497376 0.551352
vt 0.063704 0.551316
vt 0.063171 0.502656
vt 0.502956 0.062167
vt 0.551547 0.060179
vt 0.551525 0.494994
vt 0.502656 0.495426
vt 0.060064 0.498183
vt 0.498157 0.498546
vt 0.058768 0.059398
vt 0.056089 0.001475
vt 0.498750 0.059268
vt 0.498135 0.001391
vt 0.055641 0.995933
vt 0.060611 0.555812
vt 0.002014 0.500962
vt 0.500759 0.556224
vt 0.001391 0.060049
vt 0.556224 0.056841
vt 0.556224 0.498134
vt 0.498027 0.998609
vn 0.7071 0.0000 -0.7071
vn 1.0000 0.0000 0.0000
vn 0.7071 -0.0000 0.7071
vn 0.0000 -0.0000 1.0000
vn -0.7071 -0.0000 0.7071
vn -1.0000 -0.0000 0.0000
vn -0.7071 0.0000 -0.7071
vn 0.0000 0.0000 -1.0000
vn 0.0000 1.0000 0.0000
vn 0.7073 0.0000 -0.7069
vn -0.7071 -0.0001 0.7071
vn -0.7071 -0.0002 -0.7071
vn -0.7071 0.0001 0.7071
vn -0.7071 0.0002 -0.7071
vn -0.7070 -0.0000 0.7072
vn -0.7070 0.0000 -0.7073
vn 0.0000 -1.0000 -0.0000
vn 0.7072 0.0000 -0.7071
vn -0.7072 0.0000 0.7070
vn 0.7072 0.0000 0.7071
vn 0.0992 -0.0990 -0.9901
vn 0.5773 -0.5774 -0.5773
vn -0.5774 -0.5774 -0.5773
vn -0.0986 -0.0983 -0.9903
vn 0.0985 -0.0982 0.9903
vn 0.5773 -0.5774 0.5773
vn 0.5773 0.5774 0.5773
vn 0.0979 0.0980 0.9904
vn -0.5774 -0.5774 0.5773
vn -0.0983 -0.9903 0.0986
vn 0.0980 -0.9903 0.0980
vn -0.0986 -0.9903 -0.0983
vn -0.5774 0.5774 0.5773
vn -0.0990 0.0990 0.9902
vn 0.0991 -0.9901 -0.0991
vn 0.5773 0.5774 -0.5773
vn 0.0991 0.9901 -0.0991
vn 0.0980 0.9903 0.0980
vn 0.9901 -0.0990 -0.0990
vn 0.9903 0.0986 -0.0983
vn -0.0983 -0.0986 0.9903
vn -0.5774 0.5774 -0.5773
vn -0.0979 0.0980 -0.9904
vn 0.9903 -0.0983 0.0985
vn 0.9904 0.0980 0.0980
vn 0.0983 0.0986 -0.9903
vn -0.9901 -0.0990 -0.0990
vn -0.9904 -0.0980 0.0979
vn -0.9903 0.0986 -0.0983
vn -0.9903 0.0983 0.0985
vn -0.0987 0.9903 -0.0983
vn -0.0984 0.9903 0.0986
usemtl None.020
s off
f 1/1/1 2/2/1 3/3/1 4/4/1
f 4/4/2 3/3/2 5/5/2 6/6/2
f 6/7/3 5/8/3 7/9/3 8/10/3
f 8/10/4 7/9/4 9/11/4 10/12/4
f 10/12/5 9/11/5 11/13/5 12/14/5
f 12/14/6 11/13/6 13/15/6 14/16/6
f 14/16/7 13/15/7 15/17/7 16/18/7
f 16/18/8 15/17/8 2/2/8 1/1/8
f 17/19/9 18/20/9 19/21/9 20/22/9
f 21/23/1 22/24/1 17/19/1 23/25/1
f 12/14/6 14/16/6 24/26/6 25/27/6
f 8/10/4 10/12/4 26/28/4 27/29/4
f 28/30/10 29/31/10 30/32/10 31/33/10
f 4/4/2 6/6/2 32/34/2 33/35/2
f 34/36/9 35/37/9 36/38/9 37/39/9
f 16/18/8 1/1/8 38/40/8 39/41/8
f 40/42/3 41/43/3 42/44/3 43/45/3
f 44/46/1 45/47/1 1/1/1 4/4/1
f 46/48/3 47/49/3 6/7/3 8/10/3
f 48/50/11 49/51/11 10/12/11 12/14/11
f 50/52/12 51/53/12 14/16/12 16/18/12
f 52/54/1 53/55/1 33/35/1 38/40/1
f 54/56/3 55/57/3 27/29/3 32/58/3
f 56/59/13 57/60/13 25/27/13 26/28/13
f 58/61/14 59/62/14 39/41/14 24/26/14
f 55/57/3 46/48/3 8/10/3 27/29/3
f 47/49/3 54/56/3 32/58/3 6/7/3
f 51/53/7 58/61/7 24/26/7 14/16/7
f 57/60/15 48/50/15 12/14/15 25/27/15
f 49/51/5 56/59/5 26/28/5 10/12/5
f 59/62/16 50/52/16 16/18/16 39/41/16
f 53/55/1 44/46/1 4/4/1 33/35/1
f 45/47/1 52/54/1 38/40/1 1/1/1
f 60/63/1 43/64/1 42/65/1 61/66/1
f 41/43/17 62/67/17 61/68/17 42/44/17
f 62/69/7 63/70/7 60/63/7 61/66/7
f 63/70/9 40/42/9 43/45/9 60/63/9
f 45/71/9 44/72/9 64/73/9 65/74/9
f 52/75/7 45/71/7 65/74/7 66/76/7
f 53/77/17 52/78/17 66/79/17 67/80/17
f 44/72/3 53/77/3 67/80/3 64/73/3
f 65/74/9 64/73/9 40/42/9 63/70/9
f 66/76/7 65/74/7 63/70/7 62/69/7
f 68/81/3 69/82/3 70/83/3 71/84/3
f 64/73/3 67/80/3 41/43/3 40/42/3
f 72/85/17 69/86/17 67/80/17 66/79/17
f 69/86/17 68/87/17 41/43/17 67/80/17
f 73/88/17 72/85/17 66/79/17 62/67/17
f 68/87/17 73/88/17 62/67/17 41/43/17
f 70/83/17 74/89/17 75/90/17 71/84/17
f 72/91/7 73/92/7 75/90/7 74/89/7
f 69/93/5 72/94/5 74/89/5 70/83/5
f 73/95/1 68/96/1 71/84/1 75/90/1
f 76/97/7 31/98/7 30/99/7 77/100/7
f 29/31/17 78/101/17 77/102/17 30/32/17
f 79/103/9 28/30/9 31/33/9 76/97/9
f 78/104/15 79/103/15 76/97/15 77/100/15
f 58/105/5 51/106/5 80/107/5 81/108/5
f 51/106/9 50/109/9 82/110/9 80/107/9
f 59/111/17 58/112/17 81/113/17 83/114/17
f 50/109/1 59/111/1 83/114/1 82/110/1
f 81/108/5 80/107/5 79/103/5 78/104/5
f 80/107/9 82/110/9 28/30/9 79/103/9
f 84/115/5 85/116/5 86/117/5 87/118/5
f 82/110/1 83/114/1 29/31/1 28/30/1
f 84/119/17 88/120/17 83/114/17 81/113/17
f 88/120/17 89/121/17 29/31/17 83/114/17
f 85/122/17 84/119/17 81/113/17 78/101/17
f 89/121/17 85/122/17 78/101/17 29/31/17
f 90/123/17 87/118/17 86/117/17 91/124/17
f 88/125/3 84/126/3 87/118/3 90/123/3
f 85/127/7 89/128/7 91/124/7 86/117/7
f 89/129/1 88/130/1 90/123/1 91/124/1
f 37/39/5 36/131/5 92/132/5 93/133/5
f 35/37/7 94/134/7 92/135/7 36/38/7
f 95/136/3 34/36/3 37/39/3 93/133/3
f 94/134/17 95/137/17 93/138/17 92/135/17
f 57/139/17 56/140/17 96/141/17 97/142/17
f 56/143/3 49/144/3 98/145/3 96/146/3
f 48/147/7 57/139/7 97/142/7 99/148/7
f 49/144/9 48/147/9 99/148/9 98/145/9
f 100/149/7 101/150/7 102/151/7 103/152/7
f 96/146/3 98/145/3 34/36/3 95/136/3
f 99/148/7 97/142/7 94/134/7 35/37/7
f 98/145/9 99/148/9 35/37/9 34/36/9
f 104/153/17 105/154/17 96/141/17 95/137/17
f 105/154/17 101/155/17 97/142/17 96/141/17
f 101/155/17 100/156/17 94/134/17 97/142/17
f 100/156/17 104/153/17 95/137/17 94/134/17
f 102/151/17 106/157/17 107/158/17 103/152/17
f 105/159/3 104/160/3 107/158/3 106/157/3
f 104/161/5 100/162/5 103/152/5 107/158/5
f 101/163/18 105/164/18 106/157/18 102/151/18
f 20/22/3 19/165/3 108/166/3 109/167/3
f 18/20/19 110/168/19 108/169/19 19/21/19
f 23/25/1 17/19/1 20/22/1 109/167/1
f 110/168/17 23/170/17 109/171/17 108/169/17
f 111/172/9 3/3/9 2/173/9
f 111/172/9 5/5/9 3/3/9
f 111/172/9 7/174/9 5/5/9
f 111/172/9 9/175/9 7/174/9
f 111/172/9 11/176/9 9/175/9
f 111/172/9 13/177/9 11/176/9
f 111/172/9 15/178/9 13/177/9
f 111/172/9 2/173/9 15/178/9
f 112/179/17 38/180/17 33/35/17
f 112/179/17 33/35/17 32/34/17
f 112/179/17 32/34/17 27/181/17
f 112/179/17 27/181/17 26/182/17
f 112/179/17 26/182/17 25/183/17
f 112/179/17 25/183/17 24/184/17
f 112/179/17 24/184/17 39/185/17
f 112/179/17 39/185/17 38/180/17
f 113/186/20 114/187/20 115/188/20 116/189/20
f 47/190/9 46/191/9 117/192/9 22/24/9
f 46/191/5 55/193/5 118/194/5 117/192/5
f 54/195/1 47/190/1 22/24/1 21/23/1
f 55/193/17 54/196/17 21/197/17 118/194/17
f 117/192/5 118/194/5 110/168/5 18/20/5
f 22/24/9 117/192/9 18/20/9 17/19/9
f 114/198/17 113/199/17 23/170/17 110/168/17
f 119/200/17 114/198/17 110/168/17 118/194/17
f 120/201/17 119/200/17 118/194/17 21/197/17
f 113/199/17 120/201/17 21/197/17 23/170/17
f 121/202/17 122/203/17 116/189/17 115/188/17
f 120/204/1 113/205/1 116/189/1 122/203/1
f 114/206/5 119/207/5 121/202/5 115/188/5
f 119/208/7 120/209/7 122/203/7 121/202/7
s 1
f 123/210/17 124/211/17 125/212/17 126/213/17
f 127/214/9 128/215/9 129/216/9 130/217/9
f 131/218/4 132/219/4 133/220/4 134/221/4
f 135/222/2 136/223/2 137/224/2 138/225/2
f 139/226/8 140/227/8 141/228/8 142/229/8
f 143/230/6 144/231/6 145/232/6 146/233/6
f 142/229/21 147/234/22 148/235/23 139/226/24
f 131/218/25 149/236/26 150/237/27 132/219/28
f 151/238/29 126/213/30 125/212/31 149/236/26
f 151/238/29 148/235/23 123/210/32 126/213/30
f 152/239/33 133/220/34 132/219/28 150/237/27
f 147/234/22 124/211/35 123/210/32 148/235/23
f 124/211/35 147/234/22 149/236/26 125/212/31
f 150/240/27 153/241/36 128/215/37 127/214/38
f 135/222/39 147/234/22 153/242/36 136/223/40
f 133/220/34 152/239/33 151/238/29 134/221/41
f 139/226/24 148/235/23 154/243/42 140/227/43
f 150/244/27 149/236/26 138/225/44 137/224/45
f 153/241/36 141/228/46 140/227/43 154/243/42
f 149/236/26 147/234/22 135/222/39 138/225/44
f 146/233/47 148/235/23 151/238/29 143/230/48
f 152/245/33 154/246/42 145/232/49 144/231/50
f 147/234/22 142/229/21 141/228/46 153/241/36
f 128/215/37 153/241/36 154/243/42 129/216/51
f 152/247/33 150/240/27 127/214/38 130/217/52
f 148/235/23 146/233/47 145/232/49 154/246/42
f 152/245/33 144/231/50 143/230/48 151/238/29
f 136/223/40 153/242/36 150/244/27 137/224/45
f 134/221/41 151/238/29 149/236/26 131/218/25
f 129/216/51 154/243/42 152/247/33 130/217/52
