# Blender v3.0.1 OBJ File: 'Cafe_Assets_002.blend'
# www.blender.org
mtllib chalkboard_01.mtl
o chalkboard_01_Mesh.244
v 0.718848 0.473594 0.009000
v -0.718849 0.473594 0.009000
v -0.718849 -0.473594 0.009000
v 0.718848 -0.473594 0.009000
v -0.718849 -0.473594 -0.009000
v 0.718848 -0.473594 -0.009000
v 0.718848 0.473594 -0.009000
v -0.718849 0.473594 -0.009000
vt 0.017326 0.749957
vt 0.017325 0.017326
vt 0.500000 0.017326
vt 0.500000 0.749956
vt 0.517238 0.017326
vt 0.517238 0.749956
vt 0.999912 0.767194
vt 0.517238 0.767195
vt 0.999912 0.749956
vt 0.000088 0.749957
vt 0.000088 0.017326
vt 0.517238 0.000088
vt 0.999912 0.000088
vt 0.999912 0.017326
vn 0.0000 -0.0000 1.0000
vn 0.0000 -1.0000 0.0000
vn 1.0000 -0.0000 0.0000
vn 0.0000 1.0000 0.0000
vn -1.0000 -0.0000 0.0000
vn 0.0000 0.0000 -1.0000
usemtl Material_#2145968310.001
s 1
f 1/1/1 2/2/1 3/3/1 4/4/1
f 4/4/2 3/3/2 5/5/2 6/6/2
f 1/7/3 4/8/3 6/6/3 7/9/3
f 2/2/4 1/1/4 7/10/4 8/11/4
f 3/12/5 2/13/5 8/14/5 5/5/5
f 7/9/6 6/6/6 5/5/6 8/14/6
