# Blender v3.0.1 OBJ File: 'Retopo.blend'
# www.blender.org
mtllib espressospoon_01.mtl
o espressospoon_01_Mesh.195
v -0.005488 -0.027381 0.000003
v -0.006149 -0.027383 0.006313
v -0.010766 -0.033090 0.006227
v -0.010372 -0.033411 0.000003
v -0.003166 -0.015810 0.000003
v -0.004231 -0.016066 0.006440
v -0.003599 -0.021695 0.005954
v -0.002752 -0.021253 0.000003
v -0.016101 -0.038730 0.000003
v -0.016211 -0.038184 0.005416
v -0.022078 -0.041397 0.004278
v -0.022276 -0.042045 0.000003
v -0.017139 -0.036891 0.009852
v -0.021605 -0.039843 0.007413
v -0.021605 -0.039843 -0.007407
v -0.017139 -0.036891 -0.009847
v -0.016211 -0.038184 -0.005410
v -0.022078 -0.041397 -0.004273
v -0.027008 -0.042075 0.000003
v -0.026548 -0.041336 0.004447
v -0.012132 -0.031953 0.011398
v -0.012132 -0.031953 -0.011393
v -0.010766 -0.033090 -0.006221
v -0.024976 -0.030354 -0.009832
v -0.024341 -0.031362 -0.012545
v -0.028097 -0.036386 -0.008362
v -0.028255 -0.034679 -0.007252
v -0.006149 -0.027383 -0.006308
v -0.003599 -0.021695 -0.005949
v -0.007800 -0.026639 -0.011462
v -0.005475 -0.022463 -0.010028
v -0.012391 -0.014317 0.005954
v -0.012386 -0.022149 0.006313
v -0.016690 -0.019180 0.011467
v -0.013797 -0.015480 0.010034
v -0.004231 -0.016066 -0.006435
v -0.016642 -0.028159 0.006227
v -0.011501 -0.022335 0.000003
v -0.016122 -0.028586 0.000003
v -0.011086 -0.014259 0.000003
v -0.020916 -0.024583 -0.011393
v -0.016642 -0.028159 -0.006221
v -0.012386 -0.022149 -0.006308
v -0.016690 -0.019180 -0.011462
v -0.020916 -0.024583 0.011398
v -0.012391 -0.014317 -0.005949
v -0.013797 -0.015480 -0.010028
v -0.026548 -0.041336 -0.004441
v -0.024767 -0.039141 -0.008376
v -0.029644 -0.036694 -0.003750
v -0.021857 -0.033721 -0.005323
v -0.021691 -0.034359 0.000003
v -0.030272 -0.037245 0.000003
v -0.029644 -0.036694 0.003755
v -0.021857 -0.033721 0.005328
v -0.020202 -0.034835 0.012551
v -0.024767 -0.039141 0.008382
v -0.024976 -0.030354 0.009837
v -0.028255 -0.034679 0.007258
v -0.006846 -0.018970 0.011593
v -0.005475 -0.022463 0.010034
v -0.007800 -0.026639 0.011467
v -0.010555 -0.023685 -0.014585
v -0.006846 -0.018970 -0.011588
v -0.008644 -0.016309 -0.012355
v -0.006135 -0.013319 -0.007609
v -0.015347 -0.019664 0.014590
v -0.011377 -0.015168 0.011593
v -0.008726 -0.011145 0.000003
v -0.009024 -0.012044 -0.006435
v 0.038027 0.068237 -0.005294
v 0.051228 0.084478 -0.006775
v 0.053872 0.082494 -0.008090
v 0.040386 0.066527 -0.006455
v 0.054420 0.082711 -0.007607
v 0.051965 0.084597 -0.006370
v -0.008644 -0.016309 0.012361
v -0.006135 -0.013319 0.007614
v -0.009024 -0.012044 0.006440
v -0.012777 -0.021264 -0.015647
v -0.015205 -0.029365 -0.014589
v -0.017665 -0.027292 -0.015659
v -0.011377 -0.015168 -0.011588
v 0.054420 0.082711 0.007613
v 0.053872 0.082494 0.008095
v 0.055367 0.079545 0.006780
v 0.055778 0.079935 0.006378
v 0.051965 0.084597 0.006375
v 0.051228 0.084478 0.006780
v -0.028919 -0.040471 0.004705
v -0.026923 -0.038146 0.008939
v -0.019934 -0.025397 -0.014589
v -0.022595 -0.033282 -0.013461
v -0.020202 -0.034835 -0.012545
v -0.026923 -0.038146 -0.008933
v -0.028919 -0.040471 -0.004700
v -0.015347 -0.019664 -0.014585
v -0.030117 -0.038616 0.004360
v -0.028097 -0.036386 0.008367
v -0.029517 -0.041184 0.000003
v -0.030750 -0.039278 0.000003
v -0.015205 -0.029365 0.014594
v -0.030117 -0.038616 -0.004354
v -0.022595 -0.033282 0.013467
v -0.017665 -0.027292 0.015664
v 0.019195 0.035409 0.000003
v 0.018706 0.035228 0.003622
v 0.010072 0.020412 0.003456
v 0.010539 0.020584 0.000003
v -0.019934 -0.025397 0.014594
v -0.012777 -0.021264 0.015653
v -0.010555 -0.023685 0.014590
v -0.024341 -0.031362 0.012551
v 0.008843 0.021563 -0.004120
v 0.017417 0.036435 -0.004318
v 0.018706 0.035228 -0.003616
v 0.010072 0.020412 -0.003451
v 0.029792 0.050405 0.000003
v 0.029225 0.050240 -0.004134
v 0.007147 0.022542 0.000003
v 0.015640 0.037461 0.000003
v 0.015728 0.036947 -0.003616
v 0.007231 0.022052 -0.003451
v 0.029225 0.050240 0.004139
v 0.027867 0.051706 0.004942
v 0.017417 0.036435 0.004324
v 0.041666 0.064864 0.005300
v 0.040254 0.066371 0.006444
v 0.027867 0.051706 -0.004937
v 0.026001 0.052420 -0.004134
v -0.002405 -0.003538 -0.003861
v -0.003863 -0.002882 -0.003276
v 0.000531 0.007964 -0.003347
v 0.001970 0.007347 -0.003962
v 0.015728 0.036947 0.003622
v 0.007231 0.022052 0.003456
v 0.008843 0.021563 0.004126
v 0.038027 0.068237 0.005300
v 0.026001 0.052420 0.004139
v 0.025942 0.053007 0.000003
v 0.056705 0.079935 0.000003
v 0.056343 0.079549 0.000003
v 0.055367 0.079545 -0.006775
v 0.055778 0.079935 -0.006373
v -0.002564 -0.003264 0.003843
v -0.003863 -0.002882 0.003281
v -0.005863 -0.009903 0.003485
v -0.004335 -0.010638 0.004160
v -0.004335 -0.010638 -0.004155
v -0.003289 -0.011974 -0.003479
v 0.000531 0.007964 0.003353
v 0.001936 0.007368 0.003958
v 0.041666 0.064864 -0.005294
v 0.042412 0.064962 0.000003
v 0.003287 0.006372 0.003353
v 0.003740 0.006539 0.000003
v 0.055502 0.083284 0.000003
v -0.005871 -0.009402 0.000003
v -0.005863 -0.009903 -0.003479
v -0.000758 -0.004339 0.000003
v -0.001203 -0.004492 -0.003276
v 0.003287 0.006372 -0.003347
v 0.052142 0.085493 0.000003
v 0.051401 0.085439 0.000003
v -0.001203 -0.004492 0.003281
v 0.037909 0.068741 0.000042
v 0.000385 0.008262 -0.000090
v -0.002798 -0.011875 0.000003
v -0.003289 -0.011974 0.003485
v -0.003934 -0.002416 0.000003
vt 0.212097 0.488231
vt 0.242505 0.525423
vt 0.201129 0.562971
vt 0.169070 0.528183
vt 0.284164 0.419686
vt 0.320966 0.468878
vt 0.277296 0.491972
vt 0.250037 0.452483
vt 0.125127 0.568567
vt 0.155107 0.597847
vt 0.111026 0.628517
vt 0.084397 0.605692
vt 0.181199 0.624108
vt 0.136569 0.642332
vt 0.052980 0.550570
vt 0.074995 0.508196
vt 0.098662 0.536249
vt 0.064249 0.577125
vt 0.053644 0.633486
vt 0.086998 0.659582
vt 0.229506 0.594072
vt 0.108632 0.463184
vt 0.137037 0.493631
vt 0.411615 0.529697
vt 0.390820 0.544719
vt 0.376878 0.479197
vt 0.395427 0.480197
vt 0.177236 0.455588
vt 0.212408 0.423493
vt 0.147274 0.427590
vt 0.180417 0.408243
vt 0.636733 0.544436
vt 0.587006 0.507884
vt 0.628404 0.470089
vt 0.646826 0.507059
vt 0.237184 0.382243
vt 0.547962 0.471122
vt 0.557215 0.543325
vt 0.516237 0.503928
vt 0.604915 0.589185
vt 0.444756 0.579882
vt 0.484705 0.536919
vt 0.522973 0.574487
vt 0.486835 0.617339
vt 0.589321 0.429516
vt 0.561453 0.622737
vt 0.524502 0.634293
vt 0.031159 0.597889
vt 0.023413 0.553700
vt 0.402525 0.441745
vt 0.447884 0.493750
vt 0.473487 0.462828
vt 0.420460 0.411846
vt 0.449631 0.392750
vt 0.503379 0.436028
vt 0.198014 0.658563
vt 0.130590 0.671734
vt 0.537872 0.398374
vt 0.487773 0.384145
vt 0.325236 0.527761
vt 0.290759 0.525476
vt 0.268648 0.557782
vt 0.125849 0.392944
vt 0.180472 0.374628
vt 0.178853 0.344859
vt 0.238263 0.349062
vt 0.651454 0.453587
vt 0.671602 0.507043
vt 0.632087 0.615307
vt 0.583538 0.652467
vt 0.231422 0.079561
vt 0.061319 0.053803
vt 0.063872 0.024710
vt 0.233429 0.053845
vt 0.046050 0.338274
vt 0.045706 0.344603
vt 0.014593 0.339228
vt 0.019067 0.333584
vt 0.699105 0.504089
vt 0.699105 0.563200
vt 0.667308 0.565336
vt 0.112425 0.365351
vt 0.079195 0.433849
vt 0.057155 0.413131
vt 0.582655 0.684323
vt 0.523590 0.686648
vt 0.525460 0.659050
vt 0.032064 0.218312
vt 0.030271 0.212229
vt 0.062076 0.220598
vt 0.058307 0.225818
vt 0.006875 0.229092
vt 0.001220 0.224629
vt 0.075181 0.681614
vt 0.128184 0.695153
vt 0.425134 0.600502
vt 0.017439 0.478024
vt 0.042584 0.488635
vt 0.000128 0.553836
vt 0.008205 0.607378
vt 0.367583 0.553487
vt 0.356063 0.478966
vt 0.404270 0.618597
vt 0.458433 0.665986
vt 0.471252 0.641020
vt 0.440629 0.375629
vt 0.486045 0.365649
vt 0.034343 0.650949
vt 0.406532 0.398455
vt 0.390057 0.382617
vt 0.432750 0.355289
vt 0.256738 0.626359
vt 0.385064 0.433424
vt 0.206422 0.684965
vt 0.275874 0.650555
vt 0.484995 0.344859
vt 0.544019 0.234222
vt 0.546727 0.203067
vt 0.694055 0.202776
vt 0.691089 0.232585
vt 0.609154 0.409098
vt 0.364430 0.426351
vt 0.329378 0.598260
vt 0.302256 0.582294
vt 0.355806 0.531622
vt 0.675897 0.439795
vt 0.626414 0.387538
vt 0.559912 0.353439
vt 0.552064 0.377003
vt 0.691670 0.098957
vt 0.546344 0.094667
vt 0.550133 0.079108
vt 0.695907 0.084099
vt 0.387964 0.241096
vt 0.548356 0.265004
vt 0.394334 0.275661
vt 0.690237 0.143353
vt 0.545411 0.140774
vt 0.549540 0.110316
vt 0.694033 0.114120
vt 0.389519 0.205585
vt 0.385931 0.187483
vt 0.543748 0.187118
vt 0.227392 0.212157
vt 0.224356 0.192772
vt 0.694450 0.262308
vt 0.391762 0.082557
vt 0.397220 0.065480
vt 0.394536 0.100291
vt 0.927905 0.103691
vt 0.926713 0.118295
vt 0.826601 0.116618
vt 0.826685 0.102233
vt 0.547841 0.171524
vt 0.693106 0.172709
vt 0.690256 0.187791
vt 0.224708 0.166904
vt 0.390722 0.169783
vt 0.388966 0.134718
vt 0.063265 0.275482
vt 0.065358 0.275239
vt 0.074711 0.329142
vt 0.069848 0.324934
vt 0.925780 0.187622
vt 0.926451 0.174784
vt 0.989404 0.176372
vt 0.991639 0.191816
vt 0.284210 0.352644
vt 0.284135 0.370435
vt 0.825851 0.173903
vt 0.825500 0.187927
vt 0.241103 0.035656
vt 0.227433 0.256569
vt 0.828590 0.202964
vt 0.825703 0.232147
vt 0.037475 0.278488
vt 0.656103 0.638398
vt 0.628821 0.660421
vt 0.928531 0.232624
vt 0.930419 0.261431
vt 0.828570 0.261276
vt 0.236565 0.299799
vt 0.628035 0.678087
vt 0.006215 0.282136
vt 0.000128 0.282847
vt 0.931729 0.203566
vt 0.830116 0.087559
vt 0.932122 0.090072
vt 0.079639 0.000128
vt 0.694658 0.608791
vt 0.677037 0.610270
vt 0.225442 0.123301
vt 0.824432 0.144444
vt 0.996574 0.235278
vt 0.999872 0.205022
vt 0.923012 0.146451
vt 0.049894 0.108806
vt 0.052468 0.164900
vt 0.311230 0.392835
vt 0.334981 0.420050
vt 0.355398 0.419597
vt 0.355806 0.469578
vt 0.999872 0.086813
vt 0.991798 0.100611
vt 0.050400 0.193927
vt 0.997414 0.265662
vt 0.985341 0.146407
vt 0.989525 0.116334
vn 0.8380 -0.5457 0.0000
vn 0.8251 -0.5354 0.1805
vn 0.7153 -0.6767 0.1742
vn 0.7319 -0.6814 0.0000
vn 0.9980 0.0628 -0.0000
vn 0.9101 0.1154 0.3979
vn 0.9591 -0.1283 0.2523
vn 0.9901 -0.1406 0.0000
vn 0.5933 -0.8050 -0.0000
vn 0.5660 -0.8023 0.1896
vn 0.2178 -0.9405 0.2610
vn 0.2469 -0.9690 0.0000
vn 0.3612 -0.7390 0.5687
vn 0.1282 -0.8295 0.5436
vn 0.1282 -0.8295 -0.5437
vn 0.3612 -0.7391 -0.5685
vn 0.5659 -0.8025 -0.1892
vn 0.2173 -0.9406 -0.2609
vn -0.1708 -0.9853 0.0000
vn -0.1437 -0.9271 0.3461
vn 0.5557 -0.5921 0.5836
vn 0.5557 -0.5921 -0.5836
vn 0.7153 -0.6767 -0.1743
vn -0.6716 0.6391 0.3748
vn -0.6930 0.1048 -0.7133
vn -0.8120 -0.0281 -0.5830
vn -0.7760 0.6299 0.0327
vn 0.8251 -0.5354 -0.1805
vn 0.9591 -0.1283 -0.2522
vn 0.7053 -0.4009 -0.5847
vn 0.8371 -0.0945 -0.5389
vn -0.9049 0.3654 -0.2184
vn -0.8520 0.2373 -0.4667
vn -0.7598 0.5573 -0.3349
vn -0.7696 0.6385 0.0058
vn 0.9101 0.1154 -0.3980
vn -0.6326 0.5717 -0.5224
vn -0.9614 0.2752 -0.0000
vn -0.7622 0.6473 0.0000
vn -0.9689 0.2473 -0.0000
vn -0.7039 0.5768 0.4145
vn -0.6326 0.5717 0.5224
vn -0.8488 0.2244 0.4787
vn -0.7735 0.5194 0.3632
vn -0.7048 0.5776 -0.4119
vn -0.9049 0.3654 0.2184
vn -0.7696 0.6385 -0.0058
vn -0.1435 -0.9273 -0.3458
vn -0.0563 -0.7709 -0.6345
vn -0.5602 0.8210 0.1105
vn -0.4185 0.7781 0.4684
vn -0.4952 0.8688 0.0000
vn -0.5199 0.8542 -0.0003
vn -0.5601 0.8210 -0.1105
vn -0.4089 0.7775 -0.4777
vn 0.0995 -0.6046 0.7903
vn -0.0563 -0.7709 0.6345
vn -0.6769 0.6397 -0.3642
vn -0.7718 0.6345 -0.0413
vn 0.7435 0.1242 0.6571
vn 0.8373 -0.0939 0.5386
vn 0.7054 -0.4009 0.5846
vn 0.4976 -0.1614 -0.8522
vn 0.7435 0.1242 -0.6571
vn 0.4237 0.5050 -0.7520
vn 0.4812 0.5734 -0.6630
vn -0.3538 0.5203 0.7773
vn -0.1397 0.7924 0.5937
vn -0.6252 0.7805 -0.0000
vn -0.2402 0.9057 -0.3492
vn -0.6982 0.5084 -0.5041
vn -0.5102 0.6943 -0.5075
vn 0.1159 0.0849 -0.9896
vn -0.0375 -0.0711 -0.9968
vn 0.7204 0.5728 -0.3910
vn 0.3432 0.9103 -0.2314
vn 0.4238 0.5050 0.7519
vn 0.4812 0.5734 0.6631
vn -0.2400 0.9059 0.3490
vn 0.1438 0.1722 -0.9745
vn 0.2848 -0.4034 -0.8696
vn -0.0913 -0.1091 -0.9898
vn -0.1398 0.7924 -0.5937
vn 0.7205 0.5728 0.3909
vn 0.1391 0.1103 0.9841
vn 0.6233 -0.5764 0.5284
vn 0.9536 -0.1058 0.2819
vn 0.3431 0.9103 0.2315
vn -0.5101 0.6943 0.5076
vn -0.5917 -0.7051 0.3908
vn -0.4452 -0.5291 0.7224
vn -0.5458 0.2776 -0.7906
vn -0.2782 -0.3337 -0.9007
vn 0.0986 -0.6050 -0.7901
vn -0.4453 -0.5292 -0.7223
vn -0.5917 -0.7052 -0.3906
vn -0.3538 0.5203 -0.7773
vn -0.8800 -0.2865 0.3787
vn -0.8121 -0.0280 0.5829
vn -0.6428 -0.7660 -0.0000
vn -0.8914 -0.4533 0.0000
vn 0.2847 -0.4033 0.8697
vn -0.8801 -0.2866 -0.3786
vn -0.2776 -0.3331 0.9011
vn -0.0914 -0.1091 0.9898
vn 0.8377 -0.5462 0.0000
vn 0.7135 -0.4638 0.5252
vn 0.7596 -0.4048 0.5091
vn 0.8812 -0.4727 0.0000
vn -0.5458 0.2777 0.7906
vn 0.1441 0.1724 0.9744
vn 0.4977 -0.1620 0.8521
vn -0.6934 0.1052 0.7128
vn -0.0037 -0.0171 -0.9998
vn -0.0155 -0.0178 -0.9997
vn 0.7135 -0.4634 -0.5255
vn 0.7597 -0.4048 -0.5090
vn 0.7858 -0.6185 0.0000
vn 0.6618 -0.5356 -0.5246
vn -0.8857 0.4643 -0.0004
vn -0.8508 0.5254 0.0000
vn -0.7380 0.4454 -0.5070
vn -0.7697 0.3941 -0.5023
vn 0.5694 -0.5695 0.5928
vn -0.0273 -0.0477 0.9985
vn -0.0161 -0.0192 0.9997
vn 0.6228 -0.5968 0.5059
vn -0.0246 -0.0962 0.9951
vn -0.0270 -0.0473 -0.9985
vn -0.7065 0.4805 -0.5196
vn -0.0208 -0.0336 -0.9992
vn -0.8216 0.2824 -0.4952
vn -0.7943 0.3435 -0.5011
vn -0.0319 0.0041 -0.9995
vn -0.7469 0.4430 0.4959
vn -0.7697 0.3941 0.5022
vn -0.0089 -0.0045 1.0000
vn -0.6981 0.5085 0.5041
vn -0.7243 0.4825 0.4926
vn -0.8142 0.5805 0.0000
vn 0.9734 -0.2292 0.0000
vn 0.6989 -0.7152 -0.0000
vn 0.6244 -0.5728 -0.5310
vn 0.9536 -0.1058 -0.2818
vn 0.0156 -0.0200 0.9997
vn -0.8216 0.2823 0.4953
vn -0.6254 0.6165 0.4783
vn 0.2866 0.3335 0.8981
vn 0.2875 0.3332 -0.8979
vn 0.9320 0.0021 -0.3625
vn -0.7943 0.3435 0.5011
vn 0.0129 -0.0078 0.9999
vn 0.6228 -0.5968 -0.5059
vn 0.7388 -0.6740 -0.0000
vn 0.7872 -0.3528 0.5059
vn 0.9117 -0.4109 0.0000
vn 0.7825 0.6227 0.0000
vn -0.8645 0.5026 -0.0000
vn -0.6254 0.6165 -0.4783
vn 0.9368 -0.3500 0.0000
vn 0.8107 -0.3010 -0.5022
vn 0.7872 -0.3528 -0.5059
vn 0.3354 0.9421 -0.0000
vn -0.5836 0.8120 0.0001
vn 0.8113 -0.3017 0.5007
vn -0.7904 0.6125 -0.0043
vn -0.9166 0.3998 -0.0027
vn 0.9945 -0.1044 0.0000
vn 0.9318 0.0028 0.3631
vn -0.9415 0.3370 -0.0000
usemtl Steel_01.004
s 1
f 1/1/1 2/2/2 3/3/3 4/4/4
f 5/5/5 6/6/6 7/7/7 8/8/8
f 9/9/9 10/10/10 11/11/11 12/12/12
f 10/10/10 13/13/13 14/14/14 11/11/11
f 9/9/9 4/4/4 3/3/3 10/10/10
f 15/15/15 16/16/16 17/17/17 18/18/18
f 19/19/19 12/12/12 11/11/11 20/20/20
f 10/10/10 3/3/3 21/21/21 13/13/13
f 9/9/9 12/12/12 18/18/18 17/17/17
f 16/16/16 22/22/22 23/23/23 17/17/17
f 9/9/9 17/17/17 23/23/23 4/4/4
f 24/24/24 25/25/25 26/26/26 27/27/27
f 1/1/1 28/28/28 29/29/29 8/8/8
f 28/28/28 30/30/30 31/31/31 29/29/29
f 1/1/1 4/4/4 23/23/23 28/28/28
f 32/32/32 33/33/33 34/34/34 35/35/35
f 36/36/36 5/5/5 8/8/8 29/29/29
f 28/28/28 23/23/23 22/22/22 30/30/30
f 37/37/37 33/33/33 38/38/38 39/39/39
f 40/40/40 38/38/38 33/33/33 32/32/32
f 41/41/41 42/42/42 43/43/43 44/44/44
f 37/37/37 45/45/45 34/34/34 33/33/33
f 38/38/38 43/43/43 42/42/42 39/39/39
f 38/38/38 40/40/40 46/46/46 43/43/43
f 47/47/47 44/44/44 43/43/43 46/46/46
f 18/18/18 48/48/48 49/49/49 15/15/15
f 50/50/50 51/51/51 24/24/24 27/27/27
f 52/52/52 53/53/53 54/54/54 55/55/55
f 52/52/52 39/39/39 42/42/42 51/51/51
f 13/13/13 56/56/56 57/57/57 14/14/14
f 37/37/37 55/55/55 58/58/58 45/45/45
f 42/42/42 41/41/41 24/24/24 51/51/51
f 53/53/53 52/52/52 51/51/51 50/50/50
f 59/59/59 58/58/58 55/55/55 54/54/54
f 52/52/52 55/55/55 37/37/37 39/39/39
f 7/7/7 6/6/6 60/60/60 61/61/61
f 61/61/61 62/62/62 2/2/2 7/7/7
f 30/30/30 63/63/63 64/64/64 31/31/31
f 65/65/65 66/66/66 36/36/36 64/64/64
f 35/35/35 34/34/34 67/67/67 68/68/68
f 69/69/69 70/70/70 46/46/46 40/40/40
f 71/71/71 72/72/72 73/73/73 74/74/74
f 75/75/75 73/76/73 72/77/72 76/78/76
f 77/79/77 78/80/78 79/81/79 68/68/68
f 79/81/79 69/69/69 40/40/40 32/32/32
f 80/82/80 63/63/63 81/83/81 82/84/82
f 30/30/30 22/22/22 81/83/81 63/63/63
f 35/35/35 68/68/68 79/81/79 32/32/32
f 70/70/70 66/85/66 65/86/65 83/87/83
f 84/88/84 85/89/85 86/90/86 87/91/87
f 88/92/88 89/93/89 85/89/85 84/88/84
f 80/82/80 65/65/65 64/64/64 63/63/63
f 90/94/90 20/20/20 57/57/57 91/95/91
f 92/96/92 25/25/25 24/24/24 41/41/41
f 93/97/93 94/98/94 49/49/49 95/99/95
f 49/49/49 94/98/94 16/16/16 15/15/15
f 93/97/93 82/84/82 81/83/81 94/98/94
f 96/100/96 95/99/95 49/49/49 48/48/48
f 94/98/94 81/83/81 22/22/22 16/16/16
f 93/101/93 95/102/95 26/26/26 25/25/25
f 19/19/19 48/48/48 18/18/18 12/12/12
f 82/103/82 93/101/93 25/25/25 92/96/92
f 80/104/80 97/105/97 83/87/83 65/86/65
f 83/87/83 97/105/97 44/44/44 47/47/47
f 80/104/80 82/103/82 92/96/92 97/105/97
f 98/106/98 99/107/99 59/59/59 54/54/54
f 97/105/97 92/96/92 41/41/41 44/44/44
f 19/19/19 100/108/100 96/100/96 48/48/48
f 20/20/20 11/11/11 14/14/14 57/57/57
f 98/106/98 101/109/101 100/110/100 90/111/90
f 101/109/101 98/106/98 54/54/54 53/53/53
f 19/19/19 20/20/20 90/94/90 100/108/100
f 102/112/102 56/56/56 13/13/13 21/21/21
f 26/26/26 103/113/103 50/50/50 27/27/27
f 104/114/104 56/56/56 102/112/102 105/115/105
f 90/111/90 91/116/91 99/107/99 98/106/98
f 50/50/50 103/113/103 101/109/101 53/53/53
f 106/117/106 107/118/107 108/119/108 109/120/109
f 104/114/104 91/95/91 57/57/57 56/56/56
f 110/121/110 67/67/67 34/34/34 45/45/45
f 101/109/101 103/113/103 96/122/96 100/110/100
f 95/102/95 96/122/96 103/113/103 26/26/26
f 111/123/111 112/124/112 60/60/60 77/125/77
f 112/124/112 62/62/62 61/61/61 60/60/60
f 111/123/111 105/115/105 102/112/102 112/124/112
f 112/124/112 102/112/102 21/21/21 62/62/62
f 111/126/111 77/79/77 68/68/68 67/67/67
f 62/62/62 21/21/21 3/3/3 2/2/2
f 111/126/111 67/67/67 110/121/110 105/127/105
f 91/116/91 104/128/104 113/129/113 99/107/99
f 99/107/99 113/129/113 58/58/58 59/59/59
f 104/128/104 105/127/105 110/121/110 113/129/113
f 113/129/113 110/121/110 45/45/45 58/58/58
f 46/46/46 70/70/70 83/87/83 47/47/47
f 114/130/114 115/131/115 116/132/116 117/133/117
f 118/134/118 106/117/106 116/135/116 119/136/119
f 120/137/120 121/138/121 122/139/122 123/140/123
f 107/118/107 124/141/124 125/142/125 126/143/126
f 125/142/125 124/141/124 127/144/127 128/145/128
f 117/146/117 116/135/116 106/117/106 109/120/109
f 129/147/129 119/148/119 116/132/116 115/131/115
f 114/130/114 123/140/123 122/139/122 115/131/115
f 130/149/130 129/147/129 115/131/115 122/139/122
f 131/150/131 132/151/132 133/152/133 134/153/134
f 126/143/126 135/154/135 136/155/136 137/156/137
f 128/145/128 138/157/138 139/158/139 125/142/125
f 135/154/135 121/138/121 120/137/120 136/155/136
f 140/159/140 130/149/130 122/139/122 121/138/121
f 141/160/141 142/161/142 143/162/143 144/163/144
f 139/158/139 140/159/140 121/138/121 135/154/135
f 145/164/145 146/165/146 147/166/147 148/167/148
f 130/149/130 71/71/71 74/74/74 129/147/129
f 66/66/66 149/168/149 150/169/150 36/36/36
f 139/158/139 135/154/135 126/143/126 125/142/125
f 151/170/151 146/165/146 145/164/145 152/171/152
f 129/147/129 74/74/74 153/172/153 119/148/119
f 137/156/137 108/119/108 107/118/107 126/143/126
f 86/90/86 127/144/127 154/173/154 142/161/142
f 155/174/155 156/175/156 109/120/109 108/119/108
f 154/173/154 127/144/127 124/141/124 118/134/118
f 157/176/157 141/160/141 144/163/144 75/75/75
f 69/69/69 158/177/158 159/178/159 70/70/70
f 160/179/160 161/180/161 162/181/162 156/175/156
f 153/182/153 154/173/154 118/134/118 119/136/119
f 143/162/143 142/161/142 154/173/154 153/182/153
f 156/175/156 162/181/162 117/146/117 109/120/109
f 70/70/70 159/178/159 149/183/149 66/85/66
f 89/93/89 88/92/88 163/184/163 164/185/164
f 165/186/165 160/179/160 156/175/156 155/174/155
f 134/153/134 162/187/162 161/188/161 131/150/131
f 134/153/134 114/130/114 117/133/117 162/187/162
f 76/78/76 163/184/163 157/176/157 75/75/75
f 153/172/153 74/74/74 73/73/73 143/189/143
f 78/80/78 148/190/148 147/191/147 79/81/79
f 76/78/76 72/77/72 164/185/164 163/184/163
f 134/153/134 133/152/133 123/140/123 114/130/114
f 166/192/166 71/71/71 130/149/130 140/159/140
f 167/193/167 151/170/151 136/155/136 120/137/120
f 120/137/120 123/140/123 133/152/133 167/193/167
f 157/176/157 163/184/163 88/92/88 84/88/84
f 168/194/168 160/179/160 165/186/165 169/195/169
f 170/196/170 167/193/167 133/152/133 132/151/132
f 170/196/170 146/165/146 151/170/151 167/193/167
f 139/158/139 138/157/138 166/192/166 140/159/140
f 164/197/164 166/192/166 138/157/138 89/198/89
f 5/5/5 168/199/168 169/200/169 6/6/6
f 6/6/6 169/200/169 148/201/148 78/202/78
f 87/91/87 141/160/141 157/176/157 84/88/84
f 151/170/151 152/171/152 137/156/137 136/155/136
f 150/203/150 149/204/149 131/150/131 161/188/161
f 145/164/145 165/186/165 155/174/155 152/171/152
f 36/36/36 29/29/29 31/31/31 64/64/64
f 128/145/128 127/144/127 86/90/86 85/205/85
f 137/156/137 152/171/152 155/174/155 108/119/108
f 150/206/150 161/180/161 160/179/160 168/194/168
f 36/36/36 150/169/150 168/199/168 5/5/5
f 1/1/1 8/8/8 7/7/7 2/2/2
f 158/207/158 170/196/170 132/151/132 159/208/159
f 159/208/159 132/151/132 131/150/131 149/204/149
f 79/81/79 147/191/147 158/177/158 69/69/69
f 147/166/147 146/165/146 170/196/170 158/207/158
f 165/186/165 145/164/145 148/167/148 169/195/169
f 144/163/144 143/162/143 73/76/73 75/75/75
f 142/161/142 141/160/141 87/91/87 86/90/86
f 166/192/166 164/197/164 72/72/72 71/71/71
f 138/157/138 128/145/128 85/205/85 89/198/89
f 6/6/6 78/202/78 77/125/77 60/60/60
f 106/117/106 118/134/118 124/141/124 107/118/107
