# Blender v3.0.1 OBJ File: 'Cafe_Assets_002.blend'
# www.blender.org
mtllib saltandpepper_packet.mtl
o SaltandPepperPacket.001_Cube.006
v -0.017106 0.047883 -0.005128
v -0.017106 0.057566 -0.005307
v -0.018627 0.057566 -0.005428
v -0.018627 0.047883 -0.005390
v 0.018627 0.047883 -0.005555
v 0.018627 0.057566 -0.005517
v 0.018627 0.057566 -0.005428
v 0.018627 0.047883 -0.005390
v 0.016869 0.038201 -0.005661
v 0.016869 0.047883 -0.005854
v 0.018627 0.038201 -0.005523
v -0.018627 0.057566 -0.005517
v -0.018627 0.047883 -0.005555
v 0.018627 0.038201 -0.005422
v 0.016869 0.038201 -0.005284
v -0.017106 0.080541 -0.005661
v -0.018627 0.080541 -0.005523
v -0.018627 0.080541 -0.005422
v -0.017106 0.080541 -0.005284
v 0.016869 0.057566 -0.005638
v 0.018627 0.070859 -0.005555
v 0.018627 0.080541 -0.005523
v 0.018627 0.080541 -0.005422
v 0.018627 0.070859 -0.005390
v 0.016869 0.070859 -0.005854
v 0.016869 0.080541 -0.005661
v -0.018627 0.070859 -0.005390
v -0.018627 0.070859 -0.005555
v -0.017106 0.059371 -0.005426
v -0.018627 0.059371 -0.005460
v 0.018627 0.059371 -0.005485
v 0.018627 0.059371 -0.005460
v 0.016869 0.059371 -0.005519
v -0.018627 0.059371 -0.005485
v -0.017106 0.070859 -0.005128
v -0.018627 0.038201 -0.005422
v -0.018627 0.038201 -0.005523
v -0.017106 0.038201 -0.005284
v -0.017106 0.061177 -0.005307
v -0.018627 0.061177 -0.005428
v -0.018627 0.061177 -0.005517
v 0.016869 0.061177 -0.005638
v 0.018627 0.061177 -0.005517
v 0.018627 0.061177 -0.005428
v -0.017106 0.061177 -0.005638
v -0.017106 0.070859 -0.005843
v 0.000000 0.070859 -0.006584
v 0.000000 0.061177 -0.005638
v 0.016869 0.061177 -0.005307
v 0.016869 0.070859 -0.005122
v 0.000000 0.070859 -0.004682
v 0.000000 0.061177 -0.005307
v 0.016869 0.047883 -0.005122
v 0.000000 0.047883 -0.004682
v 0.000000 0.038201 -0.005284
v 0.016869 0.080541 -0.005284
v 0.000000 0.080541 -0.005284
v -0.017106 0.059371 -0.005519
v 0.000000 0.059371 -0.005519
v 0.000000 0.057566 -0.005638
v -0.017106 0.057566 -0.005638
v 0.016869 0.059371 -0.005426
v 0.000000 0.059371 -0.005426
v 0.000000 0.057566 -0.005307
v 0.016869 0.057566 -0.005307
v 0.000000 0.080541 -0.005661
v -0.017106 0.047883 -0.005843
v 0.000000 0.047883 -0.006584
v -0.017106 0.038201 -0.005661
v 0.000000 0.038201 -0.005661
vt 0.279633 0.134411
vt 0.279633 0.229458
vt 0.229800 0.229458
vt 0.229800 0.134411
vt 0.151578 0.548235
vt 0.147820 0.601695
vt 0.138925 0.601695
vt 0.135167 0.548235
vt 0.287804 0.483759
vt 0.287804 0.586643
vt 0.236326 0.586643
vt 0.236326 0.483759
vt 0.135167 0.207542
vt 0.138925 0.154085
vt 0.147823 0.154085
vt 0.151578 0.207542
vt 0.162148 0.483748
vt 0.148438 0.494778
vt 0.138307 0.494778
vt 0.124597 0.483748
vt 0.162148 0.017686
vt 0.148438 0.027229
vt 0.138307 0.027229
vt 0.124597 0.017686
vt 0.287804 0.690652
vt 0.236326 0.690652
vt 0.151578 0.675092
vt 0.148438 0.728552
vt 0.138307 0.728552
vt 0.135167 0.675092
vt 0.287804 0.839018
vt 0.287804 0.941902
vt 0.236326 0.941902
vt 0.236326 0.839018
vt 0.135167 0.080689
vt 0.151578 0.080689
vt 0.279633 0.249723
vt 0.229800 0.249723
vt 0.144616 0.611663
vt 0.142129 0.611663
vt 0.287804 0.712830
vt 0.236326 0.712830
vt 0.142129 0.144117
vt 0.144619 0.144117
vt 0.279633 0.365039
vt 0.279633 0.459059
vt 0.229800 0.459059
vt 0.229800 0.365039
vt 0.138307 0.261002
vt 0.148438 0.261002
vt 0.279633 0.040390
vt 0.229800 0.040390
vt 0.279633 0.269991
vt 0.229800 0.269991
vt 0.138925 0.134146
vt 0.147823 0.134146
vt 0.287804 0.735008
vt 0.236326 0.735008
vt 0.147820 0.621634
vt 0.138925 0.621634
vt 0.859360 0.735008
vt 0.859360 0.839018
vt 0.571587 0.839018
vt 0.571587 0.735008
vt 0.865121 0.269991
vt 0.865121 0.365039
vt 0.574419 0.365039
vt 0.574419 0.269991
vt 0.865121 0.040390
vt 0.865121 0.134411
vt 0.574419 0.134411
vt 0.574419 0.040390
vt 0.865121 0.459059
vt 0.574419 0.459059
vt 0.859360 0.712830
vt 0.571587 0.712830
vt 0.571587 0.690652
vt 0.859360 0.690652
vt 0.865121 0.249723
vt 0.574419 0.249723
vt 0.574419 0.229458
vt 0.865121 0.229458
vt 0.859360 0.941902
vt 0.571587 0.941902
vt 0.859360 0.586643
vt 0.571587 0.586643
vt 0.162148 0.739582
vt 0.162148 0.845440
vt 0.124597 0.845440
vt 0.124597 0.739582
vt 0.162148 0.270545
vt 0.162148 0.377890
vt 0.124597 0.377890
vt 0.124597 0.270545
vt 0.859360 0.483759
vt 0.571587 0.483759
vt 0.917854 0.134411
vt 0.917854 0.229458
vt 0.917854 0.249723
vt 0.917854 0.365039
vt 0.917854 0.459059
vt 0.917854 0.040390
vt 0.917854 0.269991
vt 0.908006 0.483759
vt 0.908006 0.586643
vt 0.908006 0.690652
vt 0.908006 0.839018
vt 0.908006 0.941902
vt 0.908006 0.712830
vt 0.908006 0.735008
vt 0.162148 0.952785
vt 0.124597 0.952785
vn -0.1249 0.0111 0.9921
vn 1.0000 0.0000 0.0000
vn 0.1233 -0.0115 -0.9923
vn -1.0000 -0.0000 0.0000
vn 0.0000 -1.0000 0.0000
vn 0.0000 1.0000 0.0000
vn 0.1183 0.0130 -0.9929
vn 0.1233 0.0115 -0.9923
vn -0.0508 0.0417 0.9978
vn 0.0437 0.0419 -0.9982
vn -0.1304 0.0096 0.9914
vn -0.1304 -0.0096 0.9914
vn -0.1249 -0.0111 0.9921
vn 0.1186 -0.0130 -0.9929
vn -0.0216 -0.0593 -0.9980
vn 0.0130 -0.0418 0.9990
vn 0.0130 -0.0394 0.9991
vn 0.0130 0.0394 0.9991
vn 0.0000 0.0658 -0.9978
vn 0.0000 0.0658 0.9978
vn -0.0216 0.0570 -0.9981
vn -0.0216 0.0593 -0.9980
vn -0.0216 -0.0570 -0.9981
vn 0.0130 0.0418 0.9990
vn 0.1100 0.0114 0.9939
vn 0.0437 0.0419 0.9982
vn 0.1147 0.0100 0.9933
vn 0.1147 -0.0100 0.9933
vn 0.1100 -0.0114 0.9939
vn 0.0216 -0.0599 -0.9980
vn 0.0216 0.0575 -0.9981
vn 0.0216 0.0599 -0.9980
vn 0.0216 -0.0575 -0.9981
vn -0.1387 -0.0109 -0.9903
vn -0.1337 0.0123 -0.9909
vn -0.1387 0.0109 -0.9903
vn -0.0508 0.0417 -0.9978
vn -0.1337 -0.0123 -0.9909
vn -0.0130 -0.0415 0.9991
vn -0.0130 -0.0391 0.9991
vn -0.0130 0.0391 0.9991
vn -0.0130 0.0415 0.9991
vn 0.0000 -0.0657 0.9978
vn -0.0508 -0.0417 -0.9978
vn 0.0000 -0.0657 -0.9978
vn 0.0436 -0.0420 0.9982
vn 0.0436 -0.0420 -0.9982
vn -0.0508 -0.0417 0.9978
usemtl None
s 1
f 1/1/1 2/2/1 3/3/1 4/4/1
f 5/5/2 6/6/2 7/7/2 8/8/2
f 9/9/3 10/10/3 5/11/3 11/12/3
f 4/13/4 3/14/4 12/15/4 13/16/4
f 9/17/5 11/18/5 14/19/5 15/20/5
f 16/21/6 17/22/6 18/23/6 19/24/6
f 10/10/7 20/25/7 6/26/7 5/11/7
f 21/27/2 22/28/2 23/29/2 24/30/2
f 25/31/8 26/32/8 22/33/8 21/34/8
f 27/35/4 18/23/4 17/22/4 28/36/4
f 29/37/9 30/38/9 3/3/9 2/2/9
f 31/39/2 32/40/2 7/7/2 6/6/2
f 33/41/10 31/42/10 6/26/10 20/25/10
f 30/43/4 34/44/4 12/15/4 3/14/4
f 35/45/11 19/46/11 18/47/11 27/48/11
f 36/49/4 4/13/4 13/16/4 37/50/4
f 11/18/2 5/5/2 8/8/2 14/19/2
f 38/51/12 1/1/12 4/4/12 36/52/12
f 39/53/13 35/45/13 27/48/13 40/54/13
f 40/55/4 27/35/4 28/36/4 41/56/4
f 42/57/14 25/31/14 21/34/14 43/58/14
f 43/59/2 21/27/2 24/30/2 44/60/2
f 45/61/15 46/62/15 47/63/15 48/64/15
f 49/65/16 50/66/16 51/67/16 52/68/16
f 15/69/17 53/70/17 54/71/17 55/72/17
f 50/66/18 56/73/18 57/74/18 51/67/18
f 58/75/19 59/76/19 60/77/19 61/78/19
f 62/79/20 63/80/20 64/81/20 65/82/20
f 46/62/21 16/83/21 66/84/21 47/63/21
f 67/85/22 61/78/22 60/77/22 68/86/22
f 26/87/6 66/88/6 57/89/6 56/90/6
f 69/91/5 70/92/5 55/93/5 38/94/5
f 69/95/23 67/85/23 68/86/23 70/96/23
f 53/70/24 65/82/24 64/81/24 54/71/24
f 8/97/25 7/98/25 65/82/25 53/70/25
f 22/28/6 26/87/6 56/90/6 23/29/6
f 32/99/26 62/79/26 65/82/26 7/98/26
f 24/100/27 23/101/27 56/73/27 50/66/27
f 14/102/28 8/97/28 53/70/28 15/69/28
f 44/103/29 24/100/29 50/66/29 49/65/29
f 48/64/30 47/63/30 25/31/30 42/57/30
f 59/76/19 33/41/19 20/25/19 60/77/19
f 47/63/31 66/84/31 26/32/31 25/31/31
f 68/86/32 60/77/32 20/25/32 10/10/32
f 70/92/5 9/17/5 15/20/5 55/93/5
f 70/96/33 68/86/33 10/10/33 9/9/33
f 37/104/34 13/105/34 67/85/34 69/95/34
f 37/50/5 69/91/5 38/94/5 36/49/5
f 13/105/35 12/106/35 61/78/35 67/85/35
f 28/107/36 17/108/36 16/83/36 46/62/36
f 34/109/37 58/75/37 61/78/37 12/106/37
f 41/110/38 28/107/38 46/62/38 45/61/38
f 52/68/39 51/67/39 35/45/39 39/53/39
f 55/72/40 54/71/40 1/1/40 38/51/40
f 51/67/41 57/74/41 19/46/41 35/45/41
f 63/80/20 29/37/20 2/2/20 64/81/20
f 66/88/6 16/111/6 19/112/6 57/89/6
f 54/71/42 64/81/42 2/2/42 1/1/42
f 52/68/43 39/53/43 29/37/43 63/80/43
f 41/110/44 45/61/44 58/75/44 34/109/44
f 48/64/45 42/57/45 33/41/45 59/76/45
f 44/103/46 49/65/46 62/79/46 32/99/46
f 49/65/43 52/68/43 63/80/43 62/79/43
f 45/61/45 48/64/45 59/76/45 58/75/45
f 40/55/4 41/56/4 34/44/4 30/43/4
f 42/57/47 43/58/47 31/42/47 33/41/47
f 43/59/2 44/60/2 32/40/2 31/39/2
f 39/53/48 40/54/48 30/38/48 29/37/48
