# Blender v3.0.1 OBJ File: 'Cafe_Assets_002.blend'
# www.blender.org
mtllib spoon_01.mtl
o Spoon_Cube.005
v 0.027337 -0.092291 0.000917
v 0.024776 -0.086160 0.001191
v 0.040538 -0.092325 0.000915
v 0.043042 -0.086460 0.001180
v 0.030528 -0.095834 0.000309
v 0.037355 -0.095834 0.000309
v 0.033941 -0.094042 0.000764
v 0.016689 0.066920 0.005688
v 0.023287 0.079870 0.007398
v 0.019500 0.074293 0.006635
v 0.051193 0.066920 0.005688
v 0.048383 0.074293 0.006635
v 0.044584 0.079880 0.007399
v 0.039039 0.084697 0.008096
v 0.028846 0.084677 0.008094
v 0.015068 0.057357 0.004567
v 0.022308 0.035120 0.002504
v 0.015370 0.049347 0.003726
v 0.017720 0.042236 0.003063
v 0.045575 0.035120 0.002504
v 0.052815 0.057357 0.004567
v 0.050162 0.042236 0.003063
v 0.052512 0.049347 0.003726
v 0.033952 0.086247 0.008332
v 0.038672 0.026794 0.002407
v 0.036106 0.019998 0.004673
v 0.029211 0.026794 0.002407
v 0.031777 0.019998 0.004673
v 0.033942 0.063478 -0.001335
v 0.033937 0.037763 -0.001735
v 0.033941 0.024573 0.002639
v 0.033942 0.019980 0.004742
v 0.039875 -0.053384 0.002978
v 0.028028 -0.053384 0.002978
v 0.041925 -0.071620 0.001926
v 0.025969 -0.071620 0.001926
v 0.043292 -0.079903 0.001505
v 0.024594 -0.079903 0.001505
v 0.036838 0.023730 0.003154
v 0.031044 0.023730 0.003154
v 0.029408 -0.029934 0.004023
v 0.036974 -0.000256 0.005265
v 0.030916 -0.000256 0.005265
v 0.038490 -0.029934 0.004023
v 0.024575 0.079390 0.006361
v 0.021229 0.074211 0.005522
v 0.018701 0.067279 0.004506
v 0.043296 0.079401 0.006363
v 0.046654 0.074211 0.005522
v 0.049182 0.067279 0.004506
v 0.029456 0.083881 0.007177
v 0.033954 0.085372 0.007482
v 0.038424 0.083904 0.007181
v 0.050728 0.058009 0.003294
v 0.050524 0.050190 0.002401
v 0.048362 0.043345 0.001735
v 0.044053 0.036779 0.001146
v 0.017358 0.050190 0.002401
v 0.017154 0.058009 0.003294
v 0.019521 0.043345 0.001735
v 0.023830 0.036779 0.001146
v 0.037379 0.029894 0.000733
v 0.030504 0.029894 0.000733
v 0.029945 0.068812 0.000768
v 0.030859 0.071032 0.001286
v 0.032388 0.073173 0.001833
v 0.029314 0.065849 0.000145
v 0.028957 0.061668 -0.000646
v 0.037018 0.071040 0.001289
v 0.035487 0.073198 0.001839
v 0.037939 0.068812 0.000768
v 0.038570 0.065849 0.000145
v 0.038927 0.061668 -0.000645
v 0.033955 0.073924 0.002036
v 0.038809 0.058036 -0.001256
v 0.038064 0.054689 -0.001743
v 0.036505 0.051558 -0.002130
v 0.033941 0.049372 -0.002359
v 0.029074 0.058036 -0.001256
v 0.029820 0.054689 -0.001744
v 0.031378 0.051557 -0.002130
v 0.033941 0.027683 0.001120
v 0.033949 -0.029934 0.006103
v 0.033941 0.023085 0.003403
v 0.033947 -0.071620 0.004661
v 0.033951 -0.053384 0.005125
v 0.033945 -0.000256 0.006489
v 0.033844 -0.080523 0.004481
v 0.027356 -0.092242 0.000609
v 0.024852 -0.086132 0.000887
v 0.040520 -0.092276 0.000608
v 0.042967 -0.086432 0.000876
v 0.030538 -0.095758 0.000019
v 0.037345 -0.095758 0.000019
v 0.033941 -0.094035 0.000691
v 0.016529 0.066991 0.005444
v 0.023153 0.080013 0.007171
v 0.019349 0.074404 0.006400
v 0.051353 0.066991 0.005444
v 0.048533 0.074404 0.006400
v 0.044718 0.080024 0.007172
v 0.039129 0.084884 0.007880
v 0.028756 0.084865 0.007878
v 0.014901 0.057397 0.004321
v 0.022174 0.035029 0.002251
v 0.015202 0.049340 0.003478
v 0.017563 0.042183 0.002813
v 0.045709 0.035029 0.002251
v 0.052982 0.057397 0.004321
v 0.050320 0.042183 0.002813
v 0.052680 0.049340 0.003478
v 0.033952 0.086460 0.008120
v 0.038751 0.026690 0.002137
v 0.036093 0.019919 0.004384
v 0.029132 0.026690 0.002137
v 0.031791 0.019919 0.004384
v 0.033942 0.063537 -0.001629
v 0.024193 0.079637 0.006332
v 0.020742 0.074349 0.005500
v 0.018144 0.067286 0.004488
v 0.043678 0.079648 0.006334
v 0.047141 0.074349 0.005500
v 0.049739 0.067286 0.004488
v 0.029252 0.084232 0.007135
v 0.033953 0.085760 0.007432
v 0.038630 0.084254 0.007139
v 0.051312 0.057921 0.003292
v 0.051090 0.050011 0.002405
v 0.048877 0.043066 0.001738
v 0.044482 0.036362 0.001144
v 0.016792 0.050011 0.002405
v 0.016571 0.057921 0.003291
v 0.019006 0.043066 0.001738
v 0.023401 0.036362 0.001143
v 0.037636 0.029268 0.000731
v 0.030246 0.029268 0.000731
v 0.033937 0.037734 -0.002034
v 0.033941 0.024437 0.002372
v 0.033942 0.019892 0.004455
v 0.033941 0.026978 0.001113
v 0.033942 -0.089757 0.001795
v 0.033944 -0.086358 0.002646
v 0.039732 -0.053378 0.002709
v 0.028171 -0.053378 0.002709
v 0.041790 -0.071628 0.001658
v 0.026103 -0.071628 0.001658
v 0.043175 -0.079896 0.001228
v 0.024711 -0.079896 0.001228
v 0.036848 0.023625 0.002873
v 0.031035 0.023625 0.002873
v 0.029575 -0.029932 0.003773
v 0.036821 -0.000255 0.005007
v 0.031068 -0.000255 0.005007
v 0.038323 -0.029932 0.003773
v 0.029886 0.068894 0.000486
v 0.030815 0.071122 0.001004
v 0.032368 0.073271 0.001550
v 0.029240 0.065916 -0.000138
v 0.028880 0.061723 -0.000931
v 0.037062 0.071131 0.001006
v 0.035508 0.073296 0.001556
v 0.037998 0.068894 0.000486
v 0.038644 0.065916 -0.000138
v 0.039003 0.061722 -0.000931
v 0.033955 0.074023 0.001753
v 0.038876 0.058073 -0.001546
v 0.038113 0.054713 -0.002038
v 0.036533 0.051572 -0.002429
v 0.033941 0.049383 -0.002659
v 0.029008 0.058073 -0.001546
v 0.029771 0.054713 -0.002039
v 0.031350 0.051572 -0.002429
v 0.033949 -0.029924 0.005803
v 0.033941 0.022951 0.003135
v 0.033947 -0.071625 0.004361
v 0.033951 -0.053367 0.004822
v 0.033945 -0.000260 0.006189
v 0.033943 -0.080536 0.003941
v 0.034001 -0.086002 0.003877
v 0.033948 -0.089941 0.002379
v 0.033941 -0.097081 -0.000349
v 0.033941 -0.097196 -0.000072
vt 0.178007 0.906261
vt 0.181416 0.876100
vt 0.183015 0.876115
vt 0.179485 0.906679
vt 0.134256 0.923714
vt 0.165062 0.935263
vt 0.150809 0.952173
vt 0.135060 0.943691
vt 0.363222 0.019500
vt 0.362263 0.043389
vt 0.327094 0.027208
vt 0.345160 0.008792
vt 0.089601 0.911066
vt 0.084416 0.879166
vt 0.133428 0.876640
vt 0.133252 0.903611
vt 0.398650 0.030256
vt 0.382084 0.010272
vt 0.135657 0.958114
vt 0.120020 0.953464
vt 0.128653 0.732617
vt 0.096220 0.733475
vt 0.102601 0.619424
vt 0.125336 0.618818
vt 0.363921 0.002068
vt 0.411604 0.063771
vt 0.361495 0.062295
vt 0.161079 0.731586
vt 0.177348 0.830768
vt 0.131556 0.831020
vt 0.130269 0.386334
vt 0.136903 0.490894
vt 0.121624 0.491327
vt 0.118575 0.386623
vt 0.085796 0.833473
vt 0.322978 0.367429
vt 0.320748 0.239222
vt 0.354289 0.241024
vt 0.349181 0.368829
vt 0.387865 0.241911
vt 0.375413 0.369530
vt 0.117683 0.356058
vt 0.148328 0.340632
vt 0.136951 0.361707
vt 0.117985 0.366415
vt 0.106883 0.387018
vt 0.098777 0.362823
vt 0.359710 0.530760
vt 0.342754 0.529816
vt 0.206227 0.155850
vt 0.206585 0.199179
vt 0.138060 0.161514
vt 0.138127 0.141951
vt 0.084031 0.018367
vt 0.107521 0.010273
vt 0.109449 0.076535
vt 0.101451 0.080718
vt 0.093663 0.092682
vt 0.111198 0.134083
vt 0.089096 0.104904
vt 0.039172 0.071178
vt 0.057564 0.042650
vt 0.131563 0.103664
vt 0.135428 0.119546
vt 0.126325 0.091775
vt 0.117863 0.080376
vt 0.131602 0.017088
vt 0.159474 0.039736
vt 0.084776 0.143510
vt 0.017607 0.161359
vt 0.025382 0.109624
vt 0.086164 0.120985
vt 0.115260 0.272338
vt 0.117046 0.334253
vt 0.095736 0.320736
vt 0.195446 0.104658
vt 0.179436 0.067083
vt 0.113397 0.209209
vt 0.126831 0.196835
vt 0.174428 0.276347
vt 0.137531 0.319516
vt 0.167459 0.034607
vt 0.135152 0.010596
vt 0.019779 0.204635
vt 0.085984 0.163036
vt 0.032175 0.242540
vt 0.090467 0.180951
vt 0.099259 0.197639
vt 0.056383 0.279794
vt 0.352570 0.884890
vt 0.355322 0.863391
vt 0.423565 0.849871
vt 0.412933 0.899535
vt 0.134629 0.179660
vt 0.196421 0.237743
vt 0.190483 0.064228
vt 0.208602 0.104549
vt 0.277861 0.729546
vt 0.316594 0.694151
vt 0.334348 0.740549
vt 0.331981 0.799144
vt 0.318355 0.809819
vt 0.080089 0.012112
vt 0.107340 0.003712
vt 0.220219 0.157920
vt 0.220227 0.202946
vt 0.045358 0.290420
vt 0.019762 0.249212
vt 0.209203 0.243680
vt 0.186054 0.286312
vt 0.086189 0.342447
vt 0.049294 0.037998
vt 0.106347 0.491788
vt 0.252996 0.764019
vt 0.239727 0.800347
vt 0.229515 0.796584
vt 0.243756 0.758573
vt 0.377090 0.963394
vt 0.397025 0.936408
vt 0.405594 0.938574
vt 0.383337 0.967331
vt 0.348905 0.986006
vt 0.351749 0.991128
vt 0.323785 0.997932
vt 0.324023 0.992724
vt 0.256162 0.930721
vt 0.273889 0.959256
vt 0.267361 0.962655
vt 0.247455 0.932190
vt 0.299948 0.984105
vt 0.296687 0.988884
vt 0.243263 0.892713
vt 0.233149 0.891958
vt 0.329106 0.870682
vt 0.343447 0.911648
vt 0.335070 0.922607
vt 0.236637 0.842372
vt 0.226038 0.839942
vt 0.325778 0.529400
vt 0.350102 0.640825
vt 0.338353 0.640062
vt 0.148067 0.618095
vt 0.353338 0.662875
vt 0.337625 0.658258
vt 0.326580 0.639883
vt 0.166445 0.936105
vt 0.104391 0.937866
vt 0.103079 0.938828
vt 0.088135 0.911586
vt 0.313316 0.139206
vt 0.358286 0.141829
vt 0.082805 0.879272
vt 0.403321 0.142811
vt 0.151638 0.953317
vt 0.135723 0.959694
vt 0.119289 0.954680
vt 0.308432 0.093705
vt 0.360215 0.094164
vt 0.162902 0.731307
vt 0.179027 0.830576
vt 0.094384 0.733302
vt 0.100505 0.619334
vt 0.363164 0.680456
vt 0.337261 0.667357
vt 0.321593 0.661603
vt 0.132044 0.386618
vt 0.138875 0.490709
vt 0.411871 0.097846
vt 0.423846 0.807727
vt 0.355344 0.844621
vt 0.352104 0.827245
vt 0.413525 0.770453
vt 0.311539 0.910403
vt 0.319003 0.922084
vt 0.326790 0.926253
vt 0.307236 0.898532
vt 0.348661 0.900202
vt 0.027978 0.068973
vt 0.336648 0.682637
vt 0.303558 0.861310
vt 0.304573 0.882958
vt 0.355717 0.695719
vt 0.391496 0.734100
vt 0.344703 0.810875
vt 0.305041 0.842600
vt 0.003759 0.164242
vt 0.012242 0.110283
vt 0.309663 0.825541
vt 0.423079 0.899591
vt 0.434327 0.804793
vt 0.434327 0.848296
vt 0.270149 0.721146
vt 0.423170 0.765763
vt 0.399855 0.726344
vt 0.310393 0.678341
vt 0.018207 0.249936
vt 0.004721 0.209519
vt 0.006379 0.209192
vt 0.168659 0.033429
vt 0.191912 0.063356
vt 0.107294 0.002068
vt 0.135872 0.009096
vt 0.026500 0.068187
vt 0.048028 0.036891
vt 0.079280 0.010657
vt 0.010599 0.109862
vt 0.002068 0.164147
vt 0.104367 0.491719
vt 0.105127 0.387405
vt 0.150155 0.617884
vt 0.138719 0.362476
vt 0.097057 0.363693
vt 0.311898 0.058151
vt 0.084104 0.833380
vt 0.084738 0.343545
vt 0.149842 0.341643
vt 0.210218 0.104033
vt 0.221902 0.157726
vt 0.221902 0.203176
vt 0.043954 0.291427
vt 0.210797 0.244312
vt 0.187514 0.287236
vn -0.8030 -0.3344 0.4933
vn -0.9153 0.1472 0.3749
vn -0.3546 0.1424 -0.9241
vn -0.5343 -0.1884 -0.8240
vn 0.0437 -0.2591 0.9649
vn -0.5945 -0.5572 0.5798
vn -0.4790 -0.6952 0.5359
vn 0.0000 -0.2703 0.9628
vn -0.0000 0.2565 -0.9665
vn -0.0199 0.2608 -0.9652
vn 0.5369 -0.3106 -0.7844
vn 0.4554 -0.3330 -0.8256
vn 0.7809 -0.3515 0.5164
vn 0.9224 0.1388 0.3605
vn -0.0044 -0.1013 0.9948
vn -0.0544 -0.0681 0.9962
vn -0.5496 -0.2722 -0.7899
vn -0.4554 -0.3330 -0.8257
vn -0.0021 -0.8967 0.4427
vn 0.4790 -0.6952 0.5359
vn 0.0000 -0.0555 0.9985
vn 0.9541 0.0511 0.2952
vn 0.9795 0.0427 0.1968
vn 0.0000 -0.0308 0.9995
vn 0.0891 -0.3684 -0.9254
vn -0.0839 0.1171 -0.9896
vn -0.9541 0.0509 0.2953
vn -0.9388 0.1331 0.3176
vn 0.0003 0.0149 0.9999
vn -0.7313 0.1787 0.6583
vn -0.9655 0.0410 0.2573
vn -0.0000 0.0133 0.9999
vn -0.0000 0.2920 0.9564
vn 0.9390 0.1323 0.3176
vn 0.1934 0.0518 -0.9798
vn 0.2893 0.0792 -0.9540
vn -0.0000 0.0559 -0.9984
vn -0.0000 0.0311 -0.9995
vn -0.2893 0.0791 -0.9540
vn -0.1934 0.0522 -0.9797
vn 0.0000 0.4552 0.8904
vn -0.3414 -0.1262 0.9314
vn -0.6007 -0.0279 0.7990
vn -0.0000 0.4590 0.8884
vn 0.7313 0.1789 0.6582
vn 0.6007 -0.0278 0.7990
vn -0.2536 0.0445 -0.9663
vn -0.0000 -0.0130 -0.9999
vn 0.5269 -0.1490 0.8368
vn 0.5279 0.0010 0.8493
vn 0.2217 -0.1238 0.9672
vn 0.2543 -0.1805 0.9501
vn -0.2793 -0.5962 0.7527
vn 0.0006 -0.6689 0.7434
vn 0.0005 -0.3300 0.9440
vn -0.0693 -0.3248 0.9432
vn -0.1458 -0.3029 0.9418
vn -0.0000 -0.1936 0.9811
vn -0.1961 -0.2738 0.9416
vn -0.4704 -0.3677 0.8022
vn -0.4190 -0.4652 0.7797
vn 0.1960 -0.2738 0.9416
vn 0.2466 -0.2207 0.9436
vn 0.1463 -0.3027 0.9418
vn 0.0686 -0.3251 0.9432
vn 0.2777 -0.5975 0.7523
vn 0.4193 -0.4644 0.7800
vn -0.2543 -0.1805 0.9501
vn -0.5270 -0.1491 0.8367
vn -0.5040 -0.2400 0.8297
vn -0.2467 -0.2207 0.9436
vn 0.0001 0.0974 0.9952
vn 0.0000 0.4106 0.9118
vn -0.2928 0.3483 0.8905
vn 0.5039 -0.2400 0.8297
vn 0.4704 -0.3676 0.8023
vn -0.0000 -0.0355 0.9994
vn 0.0944 -0.0476 0.9944
vn 0.4165 0.2756 0.8664
vn 0.2928 0.3483 0.8905
vn -0.1352 -0.0226 0.9906
vn -0.0828 -0.0102 0.9965
vn -0.5279 0.0007 0.8493
vn -0.2217 -0.1237 0.9672
vn -0.4951 0.1528 0.8553
vn -0.1634 -0.0778 0.9835
vn -0.0945 -0.0476 0.9944
vn -0.4165 0.2755 0.8664
vn -0.2467 0.2207 -0.9436
vn -0.2542 0.1805 -0.9501
vn -0.5378 0.1462 -0.8303
vn -0.5142 0.2402 -0.8233
vn 0.1633 -0.0778 0.9835
vn 0.4950 0.1528 0.8553
vn -0.1725 -0.0370 0.9843
vn -0.2046 -0.0655 0.9767
vn 0.4273 -0.2851 -0.8580
vn 0.3033 -0.3602 -0.8822
vn -0.0001 -0.0971 -0.9953
vn -0.0000 0.0353 -0.9994
vn 0.0956 0.0475 -0.9943
vn 0.0837 -0.0107 0.9964
vn 0.0000 0.0134 0.9999
vn -0.2005 -0.0912 0.9754
vn -0.1906 -0.1302 0.9730
vn 0.1474 -0.1761 0.9733
vn 0.1606 -0.1634 0.9734
vn -0.1606 -0.1635 0.9734
vn -0.1475 -0.1761 0.9733
vn 0.3416 -0.1262 0.9313
vn 0.1351 -0.0225 0.9906
vn 0.9654 0.0413 0.2574
vn 0.5059 -0.1602 -0.8476
vn 0.5397 -0.0069 -0.8418
vn 0.9680 -0.1613 -0.1923
vn 0.8914 -0.4066 -0.1999
vn -0.4281 0.4700 -0.7719
vn -0.4804 0.3708 -0.7948
vn -0.8686 0.4812 -0.1183
vn -0.7598 0.6457 -0.0759
vn -0.2852 0.6080 -0.7409
vn -0.5009 0.8653 -0.0189
vn -0.0019 1.0000 0.0062
vn -0.0012 0.6829 -0.7305
vn 0.4804 0.3707 -0.7948
vn 0.4284 0.4709 -0.7712
vn 0.7592 0.6464 -0.0757
vn 0.8686 0.4812 -0.1183
vn 0.2871 0.6067 -0.7413
vn 0.5039 0.8635 -0.0190
vn 0.5142 0.2402 -0.8234
vn 0.9496 0.2641 -0.1687
vn 0.0005 0.1942 -0.9810
vn -0.1466 0.3027 -0.9418
vn -0.0694 0.3255 -0.9430
vn 0.5377 0.1466 -0.8303
vn 0.9788 0.0998 -0.1789
vn 0.2536 0.0444 -0.9663
vn -0.6766 -0.1959 -0.7098
vn 0.0000 -0.2920 -0.9564
vn -0.9795 0.0424 0.1968
vn -0.6469 -0.5202 -0.5576
vn 0.0000 -0.4590 -0.8884
vn 0.6765 -0.1957 -0.7099
vn 0.5685 -0.6252 0.5347
vn 0.5328 -0.1868 -0.8254
vn 0.3028 0.0962 -0.9482
vn -0.0000 -0.0149 -0.9999
vn 0.3558 0.1456 -0.9232
vn -0.3027 0.0968 -0.9482
vn 0.0003 0.1407 -0.9901
vn -0.7014 -0.6089 -0.3705
vn 0.0000 -0.4551 -0.8904
vn 0.6469 -0.5202 -0.5575
vn -0.5392 -0.0063 -0.8421
vn -0.2248 0.1256 -0.9663
vn -0.1658 0.0782 -0.9830
vn -0.5060 -0.1602 -0.8475
vn 0.1444 0.3035 -0.9418
vn 0.0693 0.3248 -0.9432
vn -0.0004 0.3306 -0.9438
vn 0.1959 0.2745 -0.9414
vn -0.1960 0.2738 -0.9416
vn 0.1725 -0.0369 0.9843
vn 0.0000 -0.4252 -0.9051
vn 0.2561 0.1823 -0.9493
vn 0.2310 0.1935 -0.9535
vn -0.3033 -0.3602 -0.8822
vn -0.4274 -0.2852 -0.8579
vn -0.0967 0.0470 -0.9942
vn 0.2238 0.1243 -0.9667
vn 0.2005 -0.0912 0.9754
vn 0.2046 -0.0655 0.9767
vn 0.1658 0.0783 -0.9830
vn -0.9496 0.2641 -0.1687
vn -0.9680 -0.1613 -0.1923
vn -0.9788 0.0998 -0.1789
vn 0.7710 -0.5988 -0.2166
vn -0.8910 -0.4076 -0.1999
vn -0.7710 -0.5988 -0.2166
vn 0.7014 -0.6089 -0.3705
vn 0.1905 -0.1302 0.9730
usemtl None
s 1
f 2/1/1 38/2/2 148/3/3 90/4/4
f 180/5/5 1/6/6 5/7/7 7/8/8
f 95/9/9 141/10/10 91/11/11 94/12/12
f 4/13/13 37/14/14 88/15/15 179/16/16
f 89/17/17 141/10/10 95/9/9 93/18/18
f 7/8/8 182/19/19 6/20/20
f 86/21/21 33/22/22 44/23/23 83/24/24
f 181/25/25 95/9/9 94/12/12
f 141/10/10 89/17/17 90/26/4 142/27/26
f 34/28/27 36/29/28 85/30/29 86/21/21
f 28/31/30 43/32/31 87/33/32 32/34/33
f 37/14/14 35/35/34 85/30/29 88/15/15
f 35/35/34 33/22/22 86/21/21 85/30/29
f 154/36/35 143/37/36 176/38/37 173/39/38
f 144/40/39 151/41/40 173/39/38 176/38/37
f 31/42/41 27/43/42 40/44/43 84/45/44
f 32/34/33 26/46/45 39/47/46 84/45/44
f 151/41/40 153/48/47 177/49/48 173/39/38
f 59/50/49 58/51/50 79/52/51 68/53/52
f 53/54/53 52/55/54 74/56/55 70/57/56
f 69/58/57 70/57/56 29/59/58
f 69/58/57 71/60/59 49/61/60 48/62/61
f 48/62/61 53/54/53 70/57/56 69/58/57
f 64/63/62 67/64/63 29/59/58
f 65/65/64 66/66/65 51/67/66 45/68/67
f 74/56/55 66/66/65 29/59/58
f 73/69/68 54/70/69 50/71/70 72/72/71
f 52/55/54 51/67/66 66/66/65 74/56/55
f 30/73/72 82/74/73 62/75/74
f 47/76/75 67/64/63 64/63/62 46/77/76
f 73/69/68 72/72/71 29/59/58
f 70/57/56 74/56/55 29/59/58
f 30/73/72 78/78/77 81/79/78 61/80/79 63/81/80
f 9/82/81 45/68/67 51/67/66 15/83/82
f 55/84/83 54/70/69 73/69/68 75/85/84
f 56/86/85 76/87/86 77/88/87 57/89/88
f 75/85/84 73/69/68 29/59/58
f 76/87/86 75/85/84 29/59/58
f 50/71/70 49/61/60 71/60/59 72/72/71
f 77/88/87 76/87/86 29/59/58
f 158/90/89 159/91/90 132/92/91 120/93/92
f 78/78/77 77/88/87 29/59/58
f 61/80/79 81/79/78 80/94/93 60/95/94
f 68/53/52 79/52/51 29/59/58
f 45/68/67 46/77/76 64/63/62 65/65/64
f 81/79/78 78/78/77 29/59/58
f 10/96/95 8/97/96 47/76/75 46/77/76
f 130/98/97 135/99/98 137/100/99 169/101/100 168/102/101
f 72/72/71 71/60/59 29/59/58
f 60/95/94 80/94/93 79/52/51 58/51/50
f 67/64/63 68/53/52 29/59/58
f 79/52/51 80/94/93 29/59/58
f 14/103/102 24/104/103 52/55/54 53/54/53
f 16/105/104 18/106/105 58/51/50 59/50/49
f 20/107/106 22/108/107 56/86/85 57/89/88
f 18/106/105 19/109/108 60/95/94 58/51/50
f 8/97/96 16/105/104 59/50/49 47/76/75
f 19/109/108 17/110/109 61/80/79 60/95/94
f 25/111/110 20/107/106 57/89/88 62/75/74
f 24/104/103 15/83/82 51/67/66 52/55/54
f 17/110/109 27/43/42 63/81/80 61/80/79
f 27/43/42 31/42/41 82/74/73 63/81/80
f 13/112/111 14/103/102 53/54/53 48/62/61
f 82/74/73 31/42/41 25/111/110 62/75/74
f 42/113/112 26/46/45 32/34/33 87/33/32
f 63/81/80 82/74/73 30/73/72
f 56/86/85 55/84/83 75/85/84 76/87/86
f 80/94/93 81/79/78 29/59/58
f 71/60/59 69/58/57 29/59/58
f 129/114/113 128/115/114 111/116/115 110/117/116
f 65/65/64 64/63/62 29/59/58
f 118/118/117 119/119/118 98/120/119 97/121/120
f 124/122/121 103/123/122 112/124/123 125/125/124
f 122/126/125 121/127/126 101/128/127 100/129/128
f 121/127/126 126/130/129 102/131/130 101/128/127
f 123/132/131 122/126/125 100/129/128 99/133/132
f 117/134/133 156/135/134 157/136/135
f 128/115/114 127/137/136 109/138/137 111/116/115
f 127/137/136 123/132/131 99/133/132 109/138/137
f 152/139/138 154/36/35 173/39/38 177/49/48
f 177/49/48 153/48/47 116/140/139 139/141/140
f 87/33/32 43/32/31 41/142/141 83/24/24
f 39/47/46 25/111/110 31/42/41 84/45/44
f 139/141/140 116/140/139 150/143/142 174/144/143
f 36/29/28 38/2/2 88/15/15 85/30/29
f 152/139/138 177/49/48 139/141/140 114/145/144
f 1/6/6 2/1/1 90/4/4 89/146/17
f 179/16/16 180/5/5 3/147/145 4/13/13
f 4/13/13 3/147/145 91/148/11 92/149/146
f 176/38/37 143/37/36 145/150/147 175/151/148
f 37/14/14 4/13/13 92/149/146 147/152/149
f 93/18/18 95/9/9 181/25/25
f 175/151/148 146/153/150 144/40/39 176/38/37
f 5/7/7 93/154/18 181/155/25 94/156/12 6/20/20 182/19/19
f 145/150/147 147/157/149 178/158/151 175/151/148
f 36/29/28 34/28/27 144/159/39 146/160/150
f 44/23/23 33/22/22 143/161/36 154/162/35
f 150/143/142 115/163/152 138/164/153 174/144/143
f 114/145/144 139/141/140 174/144/143 149/165/154
f 43/32/31 28/31/30 116/166/139 153/167/47
f 178/158/151 148/168/3 146/153/150 175/151/148
f 131/169/155 132/92/91 159/91/90 170/170/156
f 171/171/157 133/172/158 131/169/155 170/170/156
f 160/173/159 117/134/133 161/174/160
f 125/125/124 126/130/129 161/174/160 165/175/161
f 160/173/159 121/127/126 122/126/125 162/176/162
f 155/177/163 117/134/133 158/90/89
f 126/130/129 121/127/126 160/173/159 161/174/160
f 12/178/164 13/112/111 48/62/61 49/61/60
f 157/136/135 156/135/134 118/118/117 124/122/121
f 135/99/98 140/179/165 137/100/99
f 123/132/131 127/137/136 164/180/166 163/181/167
f 66/66/65 65/65/64 29/59/58
f 158/90/89 120/93/92 119/119/118 155/177/163
f 161/174/160 117/134/133 165/175/161
f 124/122/121 118/118/117 97/121/120 103/123/122
f 137/100/99 136/182/168 134/183/169 172/184/170 169/101/100
f 127/137/136 128/115/114 166/185/171 164/180/166
f 21/186/172 11/187/173 50/71/70 54/70/69
f 130/98/97 168/102/101 167/188/174 129/114/113
f 117/134/133 166/185/171 167/188/174
f 122/126/125 123/132/131 163/181/167 162/176/162
f 59/50/49 68/53/52 67/64/63 47/76/75
f 117/134/133 167/188/174 168/102/101
f 159/91/90 117/134/133 170/170/156
f 171/171/157 172/184/170 134/183/169 133/172/158
f 117/134/133 168/102/101 169/101/100
f 124/122/121 125/125/124 165/175/161 157/136/135
f 158/90/89 117/134/133 159/91/90
f 165/175/161 117/134/133 157/136/135
f 117/134/133 172/184/170 171/171/157
f 156/135/134 155/177/163 119/119/118 118/118/117
f 119/119/118 120/93/92 96/189/175 98/120/119
f 132/92/91 131/169/155 106/190/176 104/191/177
f 130/98/97 129/114/113 110/117/116 108/192/178
f 131/169/155 133/172/158 107/193/179 106/190/176
f 120/93/92 132/92/91 104/191/177 96/189/175
f 133/172/158 134/183/169 105/194/180 107/193/179
f 135/99/98 130/98/97 108/192/178 113/195/181
f 126/130/129 125/125/124 112/124/123 102/131/130
f 134/183/169 136/182/168 115/163/152 105/194/180
f 140/179/165 135/99/98 113/195/181 138/164/153
f 136/182/168 140/179/165 138/164/153 115/163/152
f 128/115/114 129/114/113 167/188/174 166/185/171
f 117/134/133 169/101/100 172/184/170
f 11/187/173 12/178/164 49/61/60 50/71/70
f 140/179/165 136/182/168 137/100/99
f 22/108/107 110/196/116 111/197/115 23/198/182
f 156/135/134 117/134/133 155/177/163
f 9/82/81 97/199/120 98/200/119 10/96/95
f 24/104/103 112/201/123 103/202/122 15/83/82
f 12/178/164 100/203/128 101/204/127 13/112/111
f 14/103/102 13/112/111 101/204/127 102/205/130
f 11/187/173 99/206/132 100/203/128 12/178/164
f 9/82/81 15/83/82 103/202/122 97/199/120
f 23/198/182 111/197/115 109/207/137 21/186/172
f 11/187/173 21/186/172 109/207/137 99/206/132
f 42/113/112 152/208/138 114/209/144 26/46/45
f 41/142/141 43/32/31 153/167/47 151/210/40
f 28/31/30 40/44/43 150/211/142 116/166/139
f 113/195/181 149/165/154 174/144/143 138/164/153
f 26/46/45 114/209/144 149/212/154 39/47/46
f 34/28/27 41/142/141 151/210/40 144/159/39
f 14/103/102 102/205/130 112/201/123 24/104/103
f 3/147/145 6/20/20 94/156/12 91/148/11
f 90/26/4 148/168/3 178/158/151 142/27/26
f 178/158/151 147/157/149 92/213/146 142/27/26
f 1/6/6 89/146/17 93/154/18 5/7/7
f 6/20/20 3/147/145 180/5/5 7/8/8
f 35/35/34 145/214/147 143/161/36 33/22/22
f 42/113/112 44/23/23 154/162/35 152/208/138
f 37/14/14 147/152/149 145/214/147 35/35/34
f 38/2/2 36/29/28 146/160/150 148/3/3
f 38/2/2 2/1/1 179/16/16 88/15/15
f 25/111/110 39/47/46 149/212/154 113/215/181
f 40/44/43 27/43/42 115/216/152 150/211/142
f 28/31/30 32/34/33 84/45/44 40/44/43
f 86/21/21 83/24/24 41/142/141 34/28/27
f 10/96/95 98/200/119 96/217/175 8/97/96
f 16/105/104 104/218/177 106/219/176 18/106/105
f 117/134/133 160/173/159 162/176/162
f 117/134/133 162/176/162 163/181/167
f 117/134/133 164/180/166 166/185/171
f 20/107/106 108/220/178 110/196/116 22/108/107
f 18/106/105 106/219/176 107/221/179 19/109/108
f 16/105/104 8/97/96 96/217/175 104/218/177
f 19/109/108 107/221/179 105/222/180 17/110/109
f 20/107/106 25/111/110 113/215/181 108/220/178
f 117/134/133 163/181/167 164/180/166
f 22/108/107 23/198/182 55/84/83 56/86/85
f 9/82/81 10/96/95 46/77/76 45/68/67
f 27/43/42 17/110/109 105/222/180 115/216/152
f 117/134/133 171/171/157 170/170/156
f 91/11/11 141/10/10 142/27/26 92/213/146
f 182/19/19 7/8/8 5/7/7
f 179/16/16 2/1/1 1/6/6 180/5/5
f 23/198/182 21/186/172 54/70/69 55/84/83
f 42/113/112 87/33/32 83/24/24 44/23/23
f 30/73/72 62/75/74 57/89/88 77/88/87 78/78/77
