# Blender v3.0.1 OBJ File: 'Retopo.blend'
# www.blender.org
mtllib coffeecupholde_01.mtl
o coffeecupholder_01_Mesh.200
v -1.299652 0.069750 -3.131793
v -1.304546 0.013652 -3.133499
v -1.302771 0.013617 -3.149761
v -1.297599 0.069710 -3.150609
v -1.308758 0.013565 -3.164986
v -1.304525 0.069649 -3.168224
v -1.321134 0.013507 -3.175685
v -1.318844 0.069582 -3.180602
v -1.337064 0.013456 -3.179406
v -1.337275 0.069523 -3.184908
v -1.352900 0.013425 -3.175299
v -1.355596 0.069487 -3.180155
v -1.365012 0.013421 -3.164302
v -1.369610 0.069482 -3.167433
v -1.370627 0.013443 -3.148937
v -1.376106 0.069508 -3.149655
v -1.368458 0.013488 -3.132722
v -1.373597 0.069560 -3.130895
v -1.359002 0.013545 -3.119372
v -1.362656 0.069626 -3.115449
v -1.344425 0.013601 -3.111946
v -1.345791 0.069691 -3.106858
v -1.328067 0.013643 -3.112145
v -1.326865 0.069739 -3.107088
v -1.313675 0.013662 -3.119923
v -1.310214 0.069761 -3.116087
v -1.305853 0.013801 -3.133977
v -1.300951 0.069998 -3.132268
v -1.298969 0.069959 -3.150427
v -1.304151 0.013768 -3.149577
v -1.305654 0.069900 -3.167425
v -1.309894 0.013717 -3.164182
v -1.319472 0.069835 -3.179371
v -1.321766 0.013662 -3.174445
v -1.337259 0.069779 -3.183526
v -1.337048 0.013613 -3.178015
v -1.354939 0.069744 -3.178940
v -1.352238 0.013583 -3.174075
v -1.368463 0.069739 -3.166662
v -1.363858 0.013579 -3.163526
v -1.374733 0.069764 -3.149506
v -1.369244 0.013601 -3.148786
v -1.372311 0.069815 -3.131401
v -1.367163 0.013644 -3.133231
v -1.361753 0.069878 -3.116496
v -1.358092 0.013699 -3.120425
v -1.345477 0.069941 -3.108204
v -1.344109 0.013752 -3.113302
v -1.327213 0.069987 -3.108426
v -1.328417 0.013792 -3.113492
v -1.311143 0.070008 -3.117111
v -1.314611 0.013810 -3.120954
v -1.299583 0.070535 -3.131770
v -1.297526 0.070494 -3.150621
v -1.298908 0.070624 -3.150437
v -1.300893 0.070663 -3.132248
v -1.302822 0.013068 -3.149753
v -1.304594 0.013103 -3.133515
v -1.305903 0.013232 -3.133994
v -1.304204 0.013199 -3.149569
v -1.304466 0.070433 -3.168269
v -1.305603 0.070566 -3.167464
v -1.308799 0.013016 -3.164954
v -1.309937 0.013148 -3.164149
v -1.318812 0.070366 -3.180671
v -1.319445 0.070501 -3.179429
v -1.321156 0.012958 -3.175637
v -1.321789 0.013093 -3.174395
v -1.337278 0.070308 -3.184985
v -1.337261 0.070444 -3.183592
v -1.337062 0.012908 -3.179353
v -1.337046 0.013044 -3.177959
v -1.355634 0.070272 -3.180223
v -1.354971 0.070410 -3.178997
v -1.352873 0.012877 -3.175251
v -1.352211 0.013015 -3.174026
v -1.369674 0.070266 -3.167476
v -1.368518 0.070404 -3.166699
v -1.364967 0.012872 -3.164272
v -1.363811 0.013010 -3.163494
v -1.376183 0.070293 -3.149665
v -1.374798 0.070430 -3.149514
v -1.370573 0.012895 -3.148930
v -1.369188 0.013032 -3.148779
v -1.373668 0.070345 -3.130869
v -1.372372 0.070480 -3.131379
v -1.368407 0.012940 -3.132740
v -1.367111 0.013075 -3.133250
v -1.362707 0.070411 -3.115395
v -1.361796 0.070544 -3.116449
v -1.358966 0.012996 -3.119411
v -1.358055 0.013130 -3.120465
v -1.345810 0.070475 -3.106786
v -1.345493 0.070606 -3.108144
v -1.344412 0.013052 -3.111996
v -1.344095 0.013183 -3.113353
v -1.326848 0.070524 -3.107017
v -1.327199 0.070653 -3.108366
v -1.328079 0.013094 -3.112195
v -1.328429 0.013223 -3.113544
v -1.310165 0.070545 -3.116033
v -1.311102 0.070674 -3.117065
v -1.313709 0.013112 -3.119961
v -1.314646 0.013241 -3.120993
vt 0.250634 0.321291
vt 0.250634 0.396574
vt 0.026491 0.396574
vt 0.026491 0.321291
vt 0.250634 0.471858
vt 0.026491 0.471858
vt 0.250634 0.547141
vt 0.026491 0.547141
vt 0.250634 0.622424
vt 0.026491 0.622424
vt 0.250634 0.697707
vt 0.026491 0.697707
vt 0.250634 0.772991
vt 0.026491 0.772991
vt 0.250634 0.848274
vt 0.026491 0.848274
vt 0.250634 0.923557
vt 0.026491 0.923557
vt 0.250634 0.998840
vt 0.026491 0.998840
vt 0.250634 0.020158
vt 0.250634 0.095442
vt 0.026491 0.095442
vt 0.026491 0.020158
vt 0.250634 0.170725
vt 0.026491 0.170725
vt 0.250634 0.246008
vt 0.026491 0.246008
vt 0.322006 0.674639
vt 0.322006 0.601731
vt 0.547270 0.601731
vt 0.547270 0.674639
vt 0.322006 0.528823
vt 0.547270 0.528823
vt 0.322006 0.455914
vt 0.547270 0.455914
vt 0.322006 0.383006
vt 0.547270 0.383006
vt 0.322006 0.310098
vt 0.547270 0.310098
vt 0.322006 0.237190
vt 0.547270 0.237190
vt 0.322006 0.164282
vt 0.547270 0.164282
vt 0.322006 0.091373
vt 0.547270 0.091373
vt 0.322006 0.018465
vt 0.547270 0.018465
vt 0.322006 0.966272
vt 0.322006 0.893364
vt 0.547270 0.893364
vt 0.547270 0.966272
vt 0.322006 0.820456
vt 0.547270 0.820456
vt 0.322006 0.747547
vt 0.547270 0.747547
vt 0.023356 0.321291
vt 0.023356 0.396574
vt 0.017786 0.396574
vt 0.017786 0.321291
vt 0.252828 0.396574
vt 0.252828 0.321291
vt 0.258398 0.321291
vt 0.258398 0.396574
vt 0.023356 0.471858
vt 0.017786 0.471858
vt 0.252828 0.471858
vt 0.258398 0.471858
vt 0.023356 0.547141
vt 0.017786 0.547141
vt 0.252828 0.547141
vt 0.258398 0.547141
vt 0.023356 0.622424
vt 0.017786 0.622424
vt 0.252828 0.622424
vt 0.258398 0.622424
vt 0.023356 0.697707
vt 0.017786 0.697707
vt 0.252828 0.697707
vt 0.258398 0.697707
vt 0.023356 0.772991
vt 0.017786 0.772991
vt 0.252828 0.772991
vt 0.258398 0.772991
vt 0.023356 0.848274
vt 0.017786 0.848274
vt 0.252828 0.848274
vt 0.258398 0.848274
vt 0.023356 0.923557
vt 0.017786 0.923557
vt 0.252828 0.923557
vt 0.258398 0.923557
vt 0.023356 0.998840
vt 0.017786 0.998840
vt 0.252828 0.998840
vt 0.258398 0.998840
vt 0.023356 0.020158
vt 0.023356 0.095442
vt 0.017786 0.095442
vt 0.017786 0.020158
vt 0.252828 0.095442
vt 0.252828 0.020158
vt 0.258398 0.020158
vt 0.258398 0.095442
vt 0.023356 0.170725
vt 0.017786 0.170725
vt 0.252828 0.170725
vt 0.258398 0.170725
vt 0.023356 0.246008
vt 0.017786 0.246008
vt 0.252828 0.246008
vt 0.258398 0.246008
vt 0.015126 0.396574
vt 0.015126 0.321291
vt 0.260672 0.321291
vt 0.260672 0.396574
vt 0.015126 0.471858
vt 0.260672 0.471858
vt 0.015126 0.547141
vt 0.260672 0.547141
vt 0.015126 0.622424
vt 0.260672 0.622424
vt 0.015126 0.697707
vt 0.260672 0.697707
vt 0.015126 0.772991
vt 0.260672 0.772991
vt 0.015126 0.848274
vt 0.260672 0.848274
vt 0.015126 0.923557
vt 0.260672 0.923557
vt 0.015126 0.998840
vt 0.260672 0.998840
vt 0.015126 0.095442
vt 0.015126 0.020158
vt 0.260672 0.020158
vt 0.260672 0.095442
vt 0.015126 0.170725
vt 0.260672 0.170725
vt 0.015126 0.246008
vt 0.260672 0.246008
vn 0.9352 -0.0921 0.3419
vn 0.9869 -0.0930 -0.1317
vn 0.9869 -0.0930 -0.1318
vn 0.9352 -0.0919 0.3419
vn 0.8126 -0.0945 -0.5752
vn 0.8126 -0.0946 -0.5752
vn 0.4521 -0.0962 -0.8868
vn 0.4521 -0.0963 -0.8868
vn -0.0118 -0.0976 -0.9952
vn -0.0118 -0.0977 -0.9951
vn -0.4730 -0.0985 -0.8755
vn -0.4730 -0.0986 -0.8755
vn -0.8258 -0.0988 -0.5553
vn -0.8258 -0.0987 -0.5552
vn -0.9893 -0.0981 -0.1078
vn -0.9893 -0.0981 -0.1077
vn -0.9262 -0.0967 0.3645
vn -0.9262 -0.0968 0.3645
vn -0.6508 -0.0950 0.7533
vn -0.6508 -0.0951 0.7533
vn -0.2262 -0.0933 0.9696
vn -0.2262 -0.0935 0.9696
vn 0.2502 -0.0922 0.9638
vn 0.2502 -0.0923 0.9638
vn 0.6693 -0.0917 0.7373
vn 0.6694 -0.0917 0.7373
vn -0.9352 0.0919 -0.3419
vn -0.9869 0.0930 0.1318
vn -0.9869 0.0929 0.1318
vn -0.9352 0.0920 -0.3419
vn -0.8126 0.0945 0.5752
vn -0.4521 0.0962 0.8868
vn 0.0119 0.0977 0.9951
vn 0.0119 0.0976 0.9952
vn 0.4731 0.0986 0.8755
vn 0.4731 0.0985 0.8755
vn 0.8258 0.0987 0.5553
vn 0.8258 0.0987 0.5552
vn 0.9893 0.0981 0.1077
vn 0.9262 0.0968 -0.3645
vn 0.6508 0.0952 -0.7533
vn 0.6508 0.0951 -0.7533
vn 0.2262 0.0934 -0.9696
vn 0.2262 0.0935 -0.9696
vn -0.2502 0.0922 -0.9638
vn -0.2502 0.0923 -0.9638
vn -0.6694 0.0916 -0.7373
vn -0.6694 0.0917 -0.7373
vn 0.7580 0.5909 0.2761
vn 0.8000 0.5901 -0.1087
vn -0.5598 0.8255 0.0726
vn -0.5306 0.8249 -0.1951
vn 0.6887 -0.7194 -0.0902
vn 0.6526 -0.7188 0.2396
vn -0.6737 -0.6972 -0.2451
vn -0.7110 -0.6965 0.0970
vn 0.6584 0.5888 -0.4689
vn -0.4613 0.8263 0.3232
vn 0.5673 -0.7205 -0.3988
vn -0.5850 -0.6954 0.4174
vn 0.3656 0.5874 -0.7220
vn -0.2575 0.8273 0.4993
vn 0.3164 -0.7217 -0.6157
vn -0.3246 -0.6942 0.6425
vn -0.0114 0.5862 -0.8101
vn 0.0047 0.8281 0.5605
vn -0.0066 -0.7226 -0.6912
vn 0.0105 -0.6931 0.7207
vn -0.3860 0.5855 -0.7129
vn 0.2653 0.8286 0.4930
vn -0.3276 -0.7233 -0.6079
vn 0.3437 -0.6925 0.6343
vn -0.6726 0.5854 -0.4527
vn 0.4648 0.8287 0.3119
vn -0.5731 -0.7235 -0.3849
vn 0.5986 -0.6923 0.4030
vn -0.8055 0.5859 -0.0891
vn 0.5571 0.8283 0.0590
vn -0.6870 -0.7230 -0.0734
vn 0.7168 -0.6928 0.0797
vn -0.7541 0.5869 0.2945
vn 0.5214 0.8276 -0.2079
vn -0.6431 -0.7220 0.2554
vn 0.6711 -0.6937 -0.2615
vn -0.5304 0.5883 0.6104
vn 0.3657 0.8267 -0.4276
vn -0.4514 -0.7208 0.5260
vn 0.4721 -0.6950 -0.5424
vn -0.1855 0.5896 0.7861
vn 0.1259 0.8257 -0.5499
vn -0.1558 -0.7197 0.6766
vn 0.1654 -0.6961 -0.6987
vn 0.2015 0.5906 0.7814
vn -0.1434 0.8250 -0.5467
vn 0.1759 -0.7189 0.6725
vn -0.1788 -0.6969 -0.6945
vn 0.5421 0.5911 0.5973
vn -0.3803 0.8247 -0.4186
vn 0.4677 -0.7185 0.5148
vn -0.4816 -0.6974 -0.5308
usemtl vray_Cup_holder.001
s 1
f 2/1/1 3/2/2 4/3/3 1/4/4
f 3/2/2 5/5/5 6/6/6 4/3/3
f 5/5/5 7/7/7 8/8/8 6/6/6
f 7/7/7 9/9/9 10/10/10 8/8/8
f 9/9/9 11/11/11 12/12/12 10/10/10
f 11/11/11 13/13/13 14/14/14 12/12/12
f 13/13/13 15/15/15 16/16/16 14/14/14
f 15/15/15 17/17/17 18/18/18 16/16/16
f 17/17/17 19/19/19 20/20/20 18/18/18
f 19/21/19 21/22/21 22/23/22 20/24/20
f 21/22/21 23/25/23 24/26/24 22/23/22
f 23/25/23 25/27/25 26/28/26 24/26/24
f 25/27/25 2/1/1 1/4/4 26/28/26
f 28/29/27 29/30/28 30/31/29 27/32/30
f 29/30/28 31/33/31 32/34/31 30/31/29
f 31/33/31 33/35/32 34/36/32 32/34/31
f 33/35/32 35/37/33 36/38/34 34/36/32
f 35/37/33 37/39/35 38/40/36 36/38/34
f 37/39/35 39/41/37 40/42/38 38/40/36
f 39/41/37 41/43/39 42/44/39 40/42/38
f 41/43/39 43/45/40 44/46/40 42/44/39
f 43/45/40 45/47/41 46/48/42 44/46/40
f 45/49/41 47/50/43 48/51/44 46/52/42
f 47/50/43 49/53/45 50/54/46 48/51/44
f 49/53/45 51/55/47 52/56/48 50/54/46
f 51/55/47 28/29/27 27/32/30 52/56/48
f 53/57/49 54/58/50 55/59/51 56/60/52
f 57/61/53 58/62/54 59/63/55 60/64/56
f 54/58/50 61/65/57 62/66/58 55/59/51
f 63/67/59 57/61/53 60/64/56 64/68/60
f 61/65/57 65/69/61 66/70/62 62/66/58
f 67/71/63 63/67/59 64/68/60 68/72/64
f 65/69/61 69/73/65 70/74/66 66/70/62
f 71/75/67 67/71/63 68/72/64 72/76/68
f 69/73/65 73/77/69 74/78/70 70/74/66
f 75/79/71 71/75/67 72/76/68 76/80/72
f 73/77/69 77/81/73 78/82/74 74/78/70
f 79/83/75 75/79/71 76/80/72 80/84/76
f 77/81/73 81/85/77 82/86/78 78/82/74
f 83/87/79 79/83/75 80/84/76 84/88/80
f 81/85/77 85/89/81 86/90/82 82/86/78
f 87/91/83 83/87/79 84/88/80 88/92/84
f 85/89/81 89/93/85 90/94/86 86/90/82
f 91/95/87 87/91/83 88/92/84 92/96/88
f 89/97/85 93/98/89 94/99/90 90/100/86
f 95/101/91 91/102/87 92/103/88 96/104/92
f 93/98/89 97/105/93 98/106/94 94/99/90
f 99/107/95 95/101/91 96/104/92 100/108/96
f 97/105/93 101/109/97 102/110/98 98/106/94
f 103/111/99 99/107/95 100/108/96 104/112/100
f 101/109/97 53/57/49 56/60/52 102/110/98
f 58/62/54 103/111/99 104/112/100 59/63/55
f 58/62/54 57/61/53 3/2/2 2/1/1
f 54/58/50 53/57/49 1/4/4 4/3/3
f 57/61/53 63/67/59 5/5/5 3/2/2
f 61/65/57 54/58/50 4/3/3 6/6/6
f 63/67/59 67/71/63 7/7/7 5/5/5
f 65/69/61 61/65/57 6/6/6 8/8/8
f 67/71/63 71/75/67 9/9/9 7/7/7
f 69/73/65 65/69/61 8/8/8 10/10/10
f 71/75/67 75/79/71 11/11/11 9/9/9
f 73/77/69 69/73/65 10/10/10 12/12/12
f 75/79/71 79/83/75 13/13/13 11/11/11
f 77/81/73 73/77/69 12/12/12 14/14/14
f 79/83/75 83/87/79 15/15/15 13/13/13
f 81/85/77 77/81/73 14/14/14 16/16/16
f 83/87/79 87/91/83 17/17/17 15/15/15
f 85/89/81 81/85/77 16/16/16 18/18/18
f 87/91/83 91/95/87 19/19/19 17/17/17
f 89/93/85 85/89/81 18/18/18 20/20/20
f 91/102/87 95/101/91 21/22/21 19/21/19
f 93/98/89 89/97/85 20/24/20 22/23/22
f 95/101/91 99/107/95 23/25/23 21/22/21
f 97/105/93 93/98/89 22/23/22 24/26/24
f 99/107/95 103/111/99 25/27/25 23/25/23
f 101/109/97 97/105/93 24/26/24 26/28/26
f 103/111/99 58/62/54 2/1/1 25/27/25
f 53/57/49 101/109/97 26/28/26 1/4/4
f 56/60/52 55/59/51 29/113/28 28/114/27
f 60/64/56 59/63/55 27/115/30 30/116/29
f 55/59/51 62/66/58 31/117/31 29/113/28
f 64/68/60 60/64/56 30/116/29 32/118/31
f 62/66/58 66/70/62 33/119/32 31/117/31
f 68/72/64 64/68/60 32/118/31 34/120/32
f 66/70/62 70/74/66 35/121/33 33/119/32
f 72/76/68 68/72/64 34/120/32 36/122/34
f 70/74/66 74/78/70 37/123/35 35/121/33
f 76/80/72 72/76/68 36/122/34 38/124/36
f 74/78/70 78/82/74 39/125/37 37/123/35
f 80/84/76 76/80/72 38/124/36 40/126/38
f 78/82/74 82/86/78 41/127/39 39/125/37
f 84/88/80 80/84/76 40/126/38 42/128/39
f 82/86/78 86/90/82 43/129/40 41/127/39
f 88/92/84 84/88/80 42/128/39 44/130/40
f 86/90/82 90/94/86 45/131/41 43/129/40
f 92/96/88 88/92/84 44/130/40 46/132/42
f 90/100/86 94/99/90 47/133/43 45/134/41
f 96/104/92 92/103/88 46/135/42 48/136/44
f 94/99/90 98/106/94 49/137/45 47/133/43
f 100/108/96 96/104/92 48/136/44 50/138/46
f 98/106/94 102/110/98 51/139/47 49/137/45
f 104/112/100 100/108/96 50/138/46 52/140/48
f 102/110/98 56/60/52 28/114/27 51/139/47
f 59/63/55 104/112/100 52/140/48 27/115/30
